<?xml version="1.0" encoding="UTF-8"?>
<svg version="1.1" xmlns="http://www.w3.org/2000/svg" width="139" height="368">
<path d="M0 0 C0.69222656 0.06703125 1.38445312 0.1340625 2.09765625 0.203125 C3.9375 0.75 3.9375 0.75 5.9375 3.75 C6.19628906 5.81201172 6.19628906 5.81201172 6.203125 8.1796875 C6.20892578 9.48836792 6.20892578 9.48836792 6.21484375 10.82348633 C6.20582031 11.74798584 6.19679687 12.67248535 6.1875 13.625 C6.18363281 14.56432373 6.17976563 15.50364746 6.17578125 16.47143555 C6.08617702 23.72253308 5.41527315 30.63821674 3.9375 37.75 C3.2775 37.75 2.6175 37.75 1.9375 37.75 C1.90011719 38.40742187 1.86273438 39.06484375 1.82421875 39.7421875 C1.37853956 46.19142755 0.51385434 52.45777253 -0.625 58.8125 C-1.81725705 65.51666389 -2.46860801 71.92136898 -2.0625 78.75 C-1.4025 76.44 -0.7425 74.13 -0.0625 71.75 C0.5975 71.75 1.2575 71.75 1.9375 71.75 C2.370625 69.9246875 2.370625 69.9246875 2.8125 68.0625 C3.61585792 64.83185352 4.60015409 61.80679065 5.9375 58.75 C6.5975 58.75 7.2575 58.75 7.9375 58.75 C8.205625 57.80125 8.47375 56.8525 8.75 55.875 C9.9375 52.75 9.9375 52.75 12.9375 50.75 C16.4375 50.3125 16.4375 50.3125 19.9375 50.75 C22.70939158 53.96897087 22.9375 55.4435573 22.9375 59.75 C22.2775 59.75 21.6175 59.75 20.9375 59.75 C20.999375 60.636875 21.06125 61.52375 21.125 62.4375 C21.14168215 70.62843583 18.29314562 78.9582491 15.9375 86.75 C15.2775 86.75 14.6175 86.75 13.9375 86.75 C13.64875 87.966875 13.36 89.18375 13.0625 90.4375 C12.25914208 93.66814648 11.27484591 96.69320935 9.9375 99.75 C9.2775 99.75 8.6175 99.75 7.9375 99.75 C7.834375 100.45125 7.73125 101.1525 7.625 101.875 C6.84390997 105.14137647 5.51691257 107.7971852 3.9375 110.75 C3.2775 110.75 2.6175 110.75 1.9375 110.75 C2.2675 119.66 2.5975 128.57 2.9375 137.75 C4.4225 129.83 4.4225 129.83 5.9375 121.75 C6.5975 121.75 7.2575 121.75 7.9375 121.75 C8.040625 120.904375 8.14375 120.05875 8.25 119.1875 C9.04245863 115.22520685 10.04473153 112.32522933 11.9375 108.75 C14.125 107.8125 14.125 107.8125 15.9375 107.75 C15.9375 107.09 15.9375 106.43 15.9375 105.75 C19.9375 105.75 19.9375 105.75 21.625 106.875 C24.75213776 111.34233966 23.93975664 116.94564404 23.5 122.125 C23.34724609 123.99285156 23.34724609 123.99285156 23.19140625 125.8984375 C23.10761719 126.83945313 23.02382812 127.78046875 22.9375 128.75 C22.2775 128.75 21.6175 128.75 20.9375 128.75 C20.855 129.905 20.7725 131.06 20.6875 132.25 C19.50183999 142.80404404 16.66813062 153.24687477 11.9375 162.75 C11.25915413 164.41194738 10.58550425 166.07598903 9.9375 167.75 C9.2775 167.75 8.6175 167.75 7.9375 167.75 C6.83824009 171.04777973 6.83013806 173.43624755 6.85571289 176.90771484 C6.8622438 178.18109711 6.86877472 179.45447937 6.87550354 180.76644897 C6.88411502 181.78961275 6.88411502 181.78961275 6.89290047 182.8334465 C6.91039341 184.99017786 6.92062783 187.14683376 6.92881775 189.30361938 C6.95313956 195.43751185 6.9879803 201.57130605 7.03344727 207.70507812 C7.34693988 251.52168035 7.34693988 251.52168035 3.9375 261.75 C2.2875 262.08 0.6375 262.41 -1.0625 262.75 C-3.24077473 259.48258791 -3.27437163 259.09282122 -2.85546875 255.4375 C-2.76378418 254.54289063 -2.67209961 253.64828125 -2.57763672 252.7265625 C-2.41545654 251.25316406 -2.41545654 251.25316406 -2.25 249.75 C-1.17130628 238.75182581 -0.71372339 227.79106351 -0.4375 216.75 C-0.41730804 215.95513184 -0.39711609 215.16026367 -0.37631226 214.34130859 C-0.26276307 209.81105343 -0.15858133 205.28066418 -0.0625 200.75 C-0.7225 200.75 -1.3825 200.75 -2.0625 200.75 C-2.5575 198.77 -2.5575 198.77 -3.0625 196.75 C-4.0215625 196.5953125 -4.0215625 196.5953125 -5 196.4375 C-6.0209375 196.0971875 -6.0209375 196.0971875 -7.0625 195.75 C-7.3925 194.76 -7.7225 193.77 -8.0625 192.75 C-8.7225 192.75 -9.3825 192.75 -10.0625 192.75 C-10.3925 191.76 -10.7225 190.77 -11.0625 189.75 C-11.8875 188.945625 -12.7125 188.14125 -13.5625 187.3125 C-16.04119091 184.77184182 -16.36583025 184.0011255 -17.0625 180.75 C-18.0525 180.42 -19.0425 180.09 -20.0625 179.75 C-22.55110955 173.25708455 -24.80385468 164.99455204 -22.0625 158.3125 C-21.7325 157.796875 -21.4025 157.28125 -21.0625 156.75 C-18.4225 156.75 -15.7825 156.75 -13.0625 156.75 C-12.5675 157.74 -12.5675 157.74 -12.0625 158.75 C-11.44375 158.9975 -10.825 159.245 -10.1875 159.5 C-7.19001857 161.26322437 -6.50861697 163.66056828 -5.0625 166.75 C-4.4025 167.08 -3.7425 167.41 -3.0625 167.75 C-2.5675 168.74 -2.5675 168.74 -2.0625 169.75 C-2.09559048 166.68461787 -2.16284241 163.62642448 -2.25 160.5625 C-2.25580078 159.69818359 -2.26160156 158.83386719 -2.26757812 157.94335938 C-2.42182327 153.47025014 -2.57123505 151.37243188 -5.41796875 147.765625 C-7.29103836 146.33799735 -9.22190882 144.98479018 -11.1875 143.6875 C-13.89930459 141.85997951 -15.18431537 140.34368353 -17.0625 137.75 C-18.0525 137.42 -19.0425 137.09 -20.0625 136.75 C-21.09263277 135.10178756 -22.09364628 133.43496298 -23.0625 131.75 C-23.7225 131.42 -24.3825 131.09 -25.0625 130.75 C-26.00459017 128.97144796 -26.86963953 127.15149035 -27.6875 125.3125 C-28.35652344 123.82943359 -28.35652344 123.82943359 -29.0390625 122.31640625 C-30.0625 119.75 -30.0625 119.75 -30.0625 117.75 C-30.7225 117.75 -31.3825 117.75 -32.0625 117.75 C-32.25754458 115.64651926 -32.44328496 113.54217415 -32.625 111.4375 C-32.78162109 109.67986328 -32.78162109 109.67986328 -32.94140625 107.88671875 C-33.0625 104.75 -33.0625 104.75 -32.0625 101.75 C-31.0725 101.75 -30.0825 101.75 -29.0625 101.75 C-29.0625 101.09 -29.0625 100.43 -29.0625 99.75 C-27.7425 99.75 -26.4225 99.75 -25.0625 99.75 C-25.0625 100.41 -25.0625 101.07 -25.0625 101.75 C-24.19625 101.8428125 -24.19625 101.8428125 -23.3125 101.9375 C-20.16948594 103.0724773 -19.06347824 105.12371606 -17.0625 107.75 C-16.36125 108.224375 -15.66 108.69875 -14.9375 109.1875 C-12.38491354 111.31465539 -12.07483152 113.64551667 -11.0625 116.75 C-9.5775 117.245 -9.5775 117.245 -8.0625 117.75 C-7.7325 118.74 -7.4025 119.73 -7.0625 120.75 C-6.7325 119.43 -6.4025 118.11 -6.0625 116.75 C-6.7225 116.42 -7.3825 116.09 -8.0625 115.75 C-7.4025 115.75 -6.7425 115.75 -6.0625 115.75 C-6.31746307 113.14337756 -6.59070293 110.54094478 -6.875 107.9375 C-6.94525391 107.19951172 -7.01550781 106.46152344 -7.08789062 105.70117188 C-7.51734793 101.45349842 -7.51734793 101.45349842 -9.63671875 97.86328125 C-10.10722656 97.49589844 -10.57773438 97.12851563 -11.0625 96.75 C-11.0625 96.09 -11.0625 95.43 -11.0625 94.75 C-12.0525 94.75 -13.0425 94.75 -14.0625 94.75 C-14.0625 94.09 -14.0625 93.43 -14.0625 92.75 C-14.7225 92.75 -15.3825 92.75 -16.0625 92.75 C-16.165625 92.110625 -16.26875 91.47125 -16.375 90.8125 C-16.601875 90.131875 -16.82875 89.45125 -17.0625 88.75 C-18.0525 88.42 -19.0425 88.09 -20.0625 87.75 C-26.11417466 80.48419625 -29.37309029 71.05703111 -30.0625 61.75 C-30.7225 61.75 -31.3825 61.75 -32.0625 61.75 C-32.25784474 59.33373582 -32.44403404 56.91734771 -32.625 54.5 C-32.68107422 53.81808594 -32.73714844 53.13617188 -32.79492188 52.43359375 C-33.29419927 45.57685079 -33.29419927 45.57685079 -32.0625 42.75 C-28.76196426 40.54964284 -26.91062609 40.30600122 -23.00390625 40.8671875 C-20.31037655 42.09201187 -19.75833199 43.5215233 -18.5625 46.1875 C-17.69621332 48.51377845 -17.0625 50.26927165 -17.0625 52.75 C-16.4025 52.75 -15.7425 52.75 -15.0625 52.75 C-15.07297363 51.90405273 -15.08344727 51.05810547 -15.09423828 50.18652344 C-15.12872645 46.98829188 -15.15359357 43.79015642 -15.17236328 40.59179688 C-15.18229919 39.21871788 -15.19585261 37.84565933 -15.21337891 36.47265625 C-15.3227326 27.67290033 -14.86589521 19.37458003 -13.0625 10.75 C-12.4025 10.75 -11.7425 10.75 -11.0625 10.75 C-10.629375 9.1103125 -10.629375 9.1103125 -10.1875 7.4375 C-9.0625 3.75 -9.0625 3.75 -7.0625 0.75 C-4.18049341 -0.21066886 -2.91744009 -0.32718954 0 0 Z M-2.0625 7.75 C-2.3925 9.07 -2.7225 10.39 -3.0625 11.75 C-3.7225 11.75 -4.3825 11.75 -5.0625 11.75 C-9.04156653 23.87667894 -8.36304372 36.14411751 -8.0625 48.75 C-5.66980645 45.16095967 -4.93062345 41.64003589 -4 37.5 C-3.82662109 36.76136719 -3.65324219 36.02273437 -3.47460938 35.26171875 C-1.86015857 28.24720835 -0.93121619 21.53479998 -1 14.3125 C-1.00902344 13.07628906 -1.01804687 11.84007813 -1.02734375 10.56640625 C-1.03894531 9.63699219 -1.05054688 8.70757812 -1.0625 7.75 C-1.3925 7.75 -1.7225 7.75 -2.0625 7.75 Z M-25.0625 53.75 C-24.7325 57.38 -24.4025 61.01 -24.0625 64.75 C-23.4025 64.75 -22.7425 64.75 -22.0625 64.75 C-21.98 65.575 -21.8975 66.4 -21.8125 67.25 C-20.89802731 71.51753921 -19.14026822 74.94236894 -17.0625 78.75 C-16.4025 78.75 -15.7425 78.75 -15.0625 78.75 C-15.7225 75.45 -16.3825 72.15 -17.0625 68.75 C-17.7225 68.75 -18.3825 68.75 -19.0625 68.75 C-19.18367188 68.16992188 -19.30484375 67.58984375 -19.4296875 66.9921875 C-20.39985474 62.46971558 -21.49647783 58.11249034 -23.0625 53.75 C-23.7225 53.75 -24.3825 53.75 -25.0625 53.75 Z M-15.0625 54.75 C-14.0625 56.75 -14.0625 56.75 -14.0625 56.75 Z M13.9375 59.75 C6.73779489 74.01431967 6.73779489 74.01431967 4.9375 89.75 C5.2675 88.43 5.5975 87.11 5.9375 85.75 C6.5975 85.75 7.2575 85.75 7.9375 85.75 C10.99835395 79.05883089 12.62426801 73.11095182 12.9375 65.75 C13.5975 65.75 14.2575 65.75 14.9375 65.75 C14.9375 63.77 14.9375 61.79 14.9375 59.75 C14.6075 59.75 14.2775 59.75 13.9375 59.75 Z M-25.0625 111.75 C-24.7325 113.73 -24.4025 115.71 -24.0625 117.75 C-23.4025 117.75 -22.7425 117.75 -22.0625 117.75 C-21.794375 118.636875 -21.52625 119.52375 -21.25 120.4375 C-19.24220531 126.03819046 -16.4911414 129.76422274 -12.0625 133.75 C-11.0725 134.08 -10.0825 134.41 -9.0625 134.75 C-9.7225 132.77 -10.3825 130.79 -11.0625 128.75 C-11.7225 128.75 -12.3825 128.75 -13.0625 128.75 C-13.23265625 128.14671875 -13.4028125 127.5434375 -13.578125 126.921875 C-15.0213492 122.16230582 -16.16881938 119.03529302 -20.0625 115.75 C-20.59875 115.0075 -21.135 114.265 -21.6875 113.5 C-22.368125 112.63375 -22.368125 112.63375 -23.0625 111.75 C-23.7225 111.75 -24.3825 111.75 -25.0625 111.75 Z M14.9375 120.75 C12.33723251 127.55568135 12.33723251 127.55568135 11.9375 134.75 C14.6190279 131.67307254 15.35837807 129.55265337 15.625 125.5 C15.72361328 124.16195312 15.72361328 124.16195312 15.82421875 122.796875 C15.88029297 121.78367187 15.88029297 121.78367187 15.9375 120.75 C15.6075 120.75 15.2775 120.75 14.9375 120.75 Z M10.9375 134.75 C10.9375 136.73 10.9375 138.71 10.9375 140.75 C11.2675 140.75 11.5975 140.75 11.9375 140.75 C11.9375 138.77 11.9375 136.79 11.9375 134.75 C11.6075 134.75 11.2775 134.75 10.9375 134.75 Z M9.9375 141.75 C10.9375 143.75 10.9375 143.75 10.9375 143.75 Z M7.9375 148.75 C8.9375 150.75 8.9375 150.75 8.9375 150.75 Z M-15.0625 167.75 C-14.0625 169.75 -14.0625 169.75 -14.0625 169.75 Z M-13.0625 170.75 C-13.3925 171.41 -13.7225 172.07 -14.0625 172.75 C-13.12803465 174.78144641 -12.13025224 176.78533587 -11.0625 178.75 C-10.4025 178.75 -9.7425 178.75 -9.0625 178.75 C-8.7325 179.74 -8.4025 180.73 -8.0625 181.75 C-7.7325 181.09 -7.4025 180.43 -7.0625 179.75 C-7.82971468 177.50583572 -7.82971468 177.50583572 -9 175.125 C-9.38027344 174.30773437 -9.76054688 173.49046875 -10.15234375 172.6484375 C-10.45269531 172.02195313 -10.75304687 171.39546875 -11.0625 170.75 C-11.7225 170.75 -12.3825 170.75 -13.0625 170.75 Z M-7.0625 181.75 C-6.0625 183.75 -6.0625 183.75 -6.0625 183.75 Z M-6.0625 183.75 C-5.4025 184.41 -4.7425 185.07 -4.0625 185.75 C-4.0625 185.09 -4.0625 184.43 -4.0625 183.75 C-4.7225 183.75 -5.3825 183.75 -6.0625 183.75 Z " fill="#333333" transform="translate(107.0625,57.25)"/>
<path d="M0 0 C1.20591797 -0.00128906 2.41183594 -0.00257812 3.65429688 -0.00390625 C4.92466797 -0.00003906 6.19503906 0.00382812 7.50390625 0.0078125 C8.77041016 0.00394531 10.03691406 0.00007813 11.34179688 -0.00390625 C12.54900391 -0.00261719 13.75621094 -0.00132813 15 0 C16.11431396 0.00112793 17.22862793 0.00225586 18.37670898 0.00341797 C21.06640625 0.1328125 21.06640625 0.1328125 23.06640625 1.1328125 C23.06640625 4.1028125 23.06640625 7.0728125 23.06640625 10.1328125 C22.40640625 10.1328125 21.74640625 10.1328125 21.06640625 10.1328125 C21.06640625 12.7728125 21.06640625 15.4128125 21.06640625 18.1328125 C21.82953125 18.2565625 22.59265625 18.3803125 23.37890625 18.5078125 C26.06640625 19.1328125 26.06640625 19.1328125 29.06640625 21.1328125 C30.81068252 27.56483126 30.81068252 27.56483126 29.078125 31.21484375 C27.83410832 33.01664962 26.65927184 34.62922257 25.06640625 36.1328125 C24.40640625 36.1328125 23.74640625 36.1328125 23.06640625 36.1328125 C23.30475064 41.09551063 23.55334509 46.05755582 23.81103516 51.01928711 C23.89711868 52.70371912 23.98050582 54.38829136 24.06103516 56.07299805 C24.17795024 58.50872892 24.30488144 60.94377356 24.43359375 63.37890625 C24.46701874 64.11991074 24.50044373 64.86091522 24.53488159 65.62437439 C24.91524483 73.56735133 24.91524483 73.56735133 27.06640625 81.1328125 C28.37879922 81.83981103 29.71328267 82.50728967 31.06640625 83.1328125 C32.11448666 85.10804096 33.11844735 87.10762759 34.06640625 89.1328125 C35.05640625 89.6278125 35.05640625 89.6278125 36.06640625 90.1328125 C38.60397263 96.58338973 38.52705178 103.21655405 38.734375 110.07421875 C38.77871674 111.36263168 38.82305847 112.65104462 38.8687439 113.97850037 C38.98698614 117.48782483 39.09114995 120.99743202 39.19096756 124.50732422 C39.25396271 126.69727522 39.32068388 128.88708696 39.38815308 131.0769043 C40.1495992 156.15554529 40.04457473 181.17581961 39.4362793 206.25610352 C39.39176132 208.14547386 39.39176132 208.14547386 39.34634399 210.07301331 C39.28877438 212.42849557 39.22581515 214.78385441 39.15658569 217.13902283 C39.1301297 218.16951248 39.10367371 219.20000214 39.07641602 220.26171875 C39.0503981 221.15963135 39.02438019 222.05754395 38.99757385 222.98266602 C38.91798608 225.18461057 38.91798608 225.18461057 40.06640625 227.1328125 C39.40640625 227.1328125 38.74640625 227.1328125 38.06640625 227.1328125 C38.15019531 227.87402344 38.23398437 228.61523438 38.3203125 229.37890625 C38.95770536 235.97067793 39.18336648 242.45504754 38.94140625 249.0703125 C38.93181885 249.77921631 38.92223145 250.48812012 38.91235352 251.21850586 C38.62683168 256.90542904 37.00761021 259.30013444 33.06640625 263.1328125 C30.10392439 265.14224787 27.85895181 265.36200502 24.31640625 265.2578125 C23.5171875 265.23976563 22.71796875 265.22171875 21.89453125 265.203125 C20.98960938 265.16832031 20.98960938 265.16832031 20.06640625 265.1328125 C20.06640625 265.7928125 20.06640625 266.4528125 20.06640625 267.1328125 C13.13640625 267.1328125 6.20640625 267.1328125 -0.93359375 267.1328125 C-0.93359375 266.4728125 -0.93359375 265.8128125 -0.93359375 265.1328125 C-1.50207031 265.16761719 -2.07054688 265.20242188 -2.65625 265.23828125 C-8.81397282 265.45416135 -13.65031205 264.88229501 -18.555933 260.77423477 C-23.29801542 255.12425187 -22.23843239 245.25060979 -22.25244141 238.33691406 C-22.26248703 237.18914993 -22.27253265 236.0413858 -22.28288269 234.85884094 C-22.31365473 231.0803778 -22.3307527 227.30198603 -22.34765625 223.5234375 C-22.36639781 220.87374912 -22.38588635 218.22407649 -22.40634155 215.57440186 C-22.45303543 209.30987724 -22.48979109 203.04533511 -22.52301443 196.78072619 C-22.56092752 189.73108379 -22.6105997 182.68153988 -22.66099858 175.63197756 C-22.76351693 161.19880398 -22.85847015 146.76558728 -22.91883087 132.33216858 C-22.93324744 129.20786258 -22.95314889 126.08362384 -22.97332764 122.95935059 C-22.98170946 121.07544078 -22.98980427 119.19152968 -22.99755859 117.30761719 C-23.00772223 116.05533766 -23.00772223 116.05533766 -23.0180912 114.77775955 C-23.03970294 106.51480538 -22.18505895 98.78331886 -18.93359375 91.1328125 C-18.27359375 91.1328125 -17.61359375 91.1328125 -16.93359375 91.1328125 C-16.62421875 89.864375 -16.62421875 89.864375 -16.30859375 88.5703125 C-15.02870733 85.37059644 -14.29945974 84.33404069 -11.99609375 82.0078125 C-8.34354012 78.05236418 -7.53611486 73.78512775 -6.4765625 68.609375 C-5.93359375 66.1328125 -5.93359375 66.1328125 -4.93359375 65.1328125 C-4.77500533 62.98894593 -4.68230077 60.84014412 -4.6171875 58.69140625 C-4.57529297 57.38623047 -4.53339844 56.08105469 -4.49023438 54.73632812 C-4.45041767 53.3476592 -4.4107055 51.95898728 -4.37109375 50.5703125 C-4.32791386 49.17772067 -4.28429975 47.78514222 -4.24023438 46.39257812 C-4.13373499 42.97276449 -4.03172452 39.55287487 -3.93359375 36.1328125 C-4.55234375 36.0296875 -5.17109375 35.9265625 -5.80859375 35.8203125 C-7.93359375 35.1328125 -7.93359375 35.1328125 -9.93359375 32.1328125 C-10.19921875 29.7578125 -10.19921875 29.7578125 -10.18359375 27.1328125 C-10.18875 26.2665625 -10.19390625 25.4003125 -10.19921875 24.5078125 C-9.93359375 22.1328125 -9.93359375 22.1328125 -7.93359375 19.1328125 C-6.61359375 19.1328125 -5.29359375 19.1328125 -3.93359375 19.1328125 C-4.15015625 18.50375 -4.36671875 17.8746875 -4.58984375 17.2265625 C-6.41003442 11.63116156 -7.36145999 7.01597336 -6.93359375 1.1328125 C-5.13530298 -0.66547827 -2.42382216 0.00245592 0 0 Z M-0.93359375 24.1328125 C-0.93359375 24.7928125 -0.93359375 25.4528125 -0.93359375 26.1328125 C-1.92359375 26.1328125 -2.91359375 26.1328125 -3.93359375 26.1328125 C-3.93359375 26.7928125 -3.93359375 27.4528125 -3.93359375 28.1328125 C0.07634073 30.13777974 5.15771037 29.36159134 9.56640625 29.3828125 C10.63761719 29.4034375 11.70882812 29.4240625 12.8125 29.4453125 C14.34583984 29.45304687 14.34583984 29.45304687 15.91015625 29.4609375 C16.85052734 29.4702832 17.79089844 29.47962891 18.75976562 29.48925781 C19.52095703 29.37163086 20.28214844 29.25400391 21.06640625 29.1328125 C21.72640625 28.1428125 22.38640625 27.1528125 23.06640625 26.1328125 C20.00483971 24.35612027 17.8260441 23.89230432 14.30078125 23.9375 C13.41132812 23.94394531 12.521875 23.95039062 11.60546875 23.95703125 C10.68507813 23.97378906 9.7646875 23.99054688 8.81640625 24.0078125 C7.41261719 24.02134766 7.41261719 24.02134766 5.98046875 24.03515625 C3.67551968 24.05867614 1.37109465 24.09154397 -0.93359375 24.1328125 Z M2.06640625 36.1328125 C2.01742188 38.15921875 1.9684375 40.185625 1.91796875 42.2734375 C1.86224997 44.27931353 1.80646732 46.28518826 1.74902344 48.29101562 C1.71120593 49.66398348 1.67627973 51.03703465 1.64453125 52.41015625 C1.43995582 61.15575601 0.7868764 69.55174257 -0.93359375 78.1328125 C-1.11970215 79.06770508 -1.30581055 80.00259766 -1.49755859 80.96582031 C-1.6414502 81.68092773 -1.7853418 82.39603516 -1.93359375 83.1328125 C-2.59359375 83.1328125 -3.25359375 83.1328125 -3.93359375 83.1328125 C-5.19194639 84.82381076 -5.19194639 84.82381076 -6.37109375 86.9453125 C-7.625152 89.10355068 -8.71230202 90.91539337 -10.49609375 92.66796875 C-14.01027519 96.24899604 -14.99297493 102.12101178 -16.0234375 106.90625 C-16.28241821 108.10000244 -16.28241821 108.10000244 -16.54663086 109.31787109 C-16.67432861 109.91680176 -16.80202637 110.51573242 -16.93359375 111.1328125 C-15.76376953 111.09728271 -14.59394531 111.06175293 -13.38867188 111.02514648 C-9.02034868 110.89410701 -4.65182725 110.77118763 -0.28320312 110.65063477 C1.60227661 110.59748853 3.48769685 110.54218332 5.37304688 110.48461914 C8.09361952 110.40193789 10.81431636 110.32719787 13.53515625 110.25390625 C14.36881714 110.22687119 15.20247803 110.19983612 16.06140137 110.17198181 C21.18089778 110.04341454 25.99944752 110.37734727 31.06640625 111.1328125 C31.51074824 101.2165542 31.51074824 101.2165542 28.06640625 92.1328125 C27.58171875 91.66359375 27.09703125 91.194375 26.59765625 90.7109375 C24.85697496 88.91697005 23.94935083 87.1969373 22.87890625 84.9453125 C22.53472656 84.22988281 22.19054688 83.51445312 21.8359375 82.77734375 C21.58199219 82.23464844 21.32804687 81.69195312 21.06640625 81.1328125 C20.40640625 81.1328125 19.74640625 81.1328125 19.06640625 81.1328125 C17.4577998 66.13997567 16.56220266 51.20241389 16.06640625 36.1328125 C11.44640625 36.1328125 6.82640625 36.1328125 2.06640625 36.1328125 Z M-16.93359375 119.1328125 C-16.95824303 124.38386692 -16.97642943 129.63488795 -16.98852539 134.88598633 C-16.99356593 136.67375271 -17.00039829 138.46151495 -17.0090332 140.24926758 C-17.02111105 142.81332418 -17.02682469 145.37732647 -17.03125 147.94140625 C-17.03641129 148.7455748 -17.04157257 149.54974335 -17.04689026 150.37828064 C-17.0470859 152.29682965 -16.99561358 154.21526618 -16.93359375 156.1328125 C-16.60359375 156.4628125 -16.27359375 156.7928125 -15.93359375 157.1328125 C-15.81895966 159.99727512 -15.76873605 162.83860308 -15.76000977 165.70410156 C-15.75332275 166.60329819 -15.74663574 167.50249481 -15.73974609 168.42893982 C-15.72565928 170.38892491 -15.71377692 172.34892676 -15.70379829 174.30893707 C-15.68743633 177.41050765 -15.66419922 180.51195461 -15.63890076 183.61346436 C-15.56800188 192.43446728 -15.50804562 201.25552174 -15.45678711 210.07666016 C-15.42498673 215.4660038 -15.38370341 220.85520769 -15.33659172 226.24443817 C-15.32057215 228.30010206 -15.30825038 230.35579819 -15.29968452 232.41150665 C-15.28752456 235.28913031 -15.26337008 238.16642604 -15.23657227 241.04394531 C-15.23598312 241.89401657 -15.23539398 242.74408783 -15.23478699 243.61991882 C-15.18244292 247.86388349 -15.02210367 251.31646982 -12.93359375 255.1328125 C-10.32967924 256.89675459 -9.12579079 257.1328125 -5.93359375 257.1328125 C-5.93359375 257.7928125 -5.93359375 258.4528125 -5.93359375 259.1328125 C3.96640625 259.1328125 13.86640625 259.1328125 24.06640625 259.1328125 C24.06640625 258.4728125 24.06640625 257.8128125 24.06640625 257.1328125 C24.85015625 257.0090625 25.63390625 256.8853125 26.44140625 256.7578125 C29.20698447 256.34163257 29.20698447 256.34163257 31.06640625 254.1328125 C32.02516215 250.59430802 32.19019032 247.24932262 32.18666077 243.59623718 C32.18803543 242.49552383 32.1894101 241.39481049 32.19082642 240.26074219 C32.18723114 239.06312256 32.18363586 237.86550293 32.17993164 236.6315918 C32.18007767 235.36289749 32.18022369 234.09420319 32.18037415 232.7870636 C32.18066062 229.31638176 32.17478804 225.84573459 32.16780019 222.3750608 C32.16154178 218.74490012 32.16096088 215.11473861 32.15977478 211.48457336 C32.1566688 204.61403457 32.14846529 197.74351172 32.13842529 190.87297994 C32.12724139 183.04955677 32.12174796 175.22613282 32.11672986 167.40270364 C32.10628207 151.3127306 32.08869682 135.22277359 32.06640625 119.1328125 C29.75176287 117.97549081 28.42323175 118.00608525 25.84790039 118.00341797 C24.97682144 118.00026581 24.10574249 117.99711365 23.20826721 117.99386597 C22.26555466 117.9958902 21.3228421 117.99791443 20.3515625 118 C19.38488144 117.99904327 18.41820038 117.99808655 17.42222595 117.99710083 C15.37531469 117.99641954 13.32840127 117.99827027 11.28149414 118.00244141 C8.14529568 118.00778458 5.00924082 118.00249766 1.87304688 117.99609375 C-0.11328157 117.99675465 -2.09960992 117.99803607 -4.0859375 118 C-5.02662582 117.99797577 -5.96731415 117.99595154 -6.93650818 117.99386597 C-8.24785484 117.99859421 -8.24785484 117.99859421 -9.58569336 118.00341797 C-10.35465439 118.00421356 -11.12361542 118.00500916 -11.9158783 118.00582886 C-14.13993938 118.059363 -14.13993938 118.059363 -16.93359375 119.1328125 Z " fill="#6B6C6B" transform="translate(23.93359375,51.8671875)"/>
<path d="M0 0 C2.52376849 3.78565273 2.46840861 6.62578417 2 11 C0.57048788 18.08495421 -1.93289026 24.48728612 -5 31 C-5.67834587 32.66194738 -6.35199575 34.32598903 -7 36 C-7.66 36 -8.32 36 -9 36 C-10.09925991 39.29777973 -10.10736194 41.68624755 -10.08178711 45.15771484 C-10.0752562 46.43109711 -10.06872528 47.70447937 -10.06199646 49.01644897 C-10.05338498 50.03961275 -10.05338498 50.03961275 -10.04459953 51.0834465 C-10.02710659 53.24017786 -10.01687217 55.39683376 -10.00868225 57.55361938 C-9.98436044 63.68751185 -9.9495197 69.82130605 -9.90405273 75.95507812 C-9.59056012 119.77168035 -9.59056012 119.77168035 -13 130 C-14.65 130.33 -16.3 130.66 -18 131 C-20.17827473 127.73258791 -20.21187163 127.34282122 -19.79296875 123.6875 C-19.70128418 122.79289062 -19.60959961 121.89828125 -19.51513672 120.9765625 C-19.35295654 119.50316406 -19.35295654 119.50316406 -19.1875 118 C-18.10880628 107.00182581 -17.65122339 96.04106351 -17.375 85 C-17.34471207 83.80769775 -17.34471207 83.80769775 -17.31381226 82.59130859 C-17.20026307 78.06105343 -17.09608133 73.53066418 -17 69 C-17.66 69 -18.32 69 -19 69 C-19.33 67.68 -19.66 66.36 -20 65 C-20.639375 64.896875 -21.27875 64.79375 -21.9375 64.6875 C-22.618125 64.460625 -23.29875 64.23375 -24 64 C-24.495 62.515 -24.495 62.515 -25 61 C-25.66 61 -26.32 61 -27 61 C-27.495 59.515 -27.495 59.515 -28 58 C-28.825 57.195625 -29.65 56.39125 -30.5 55.5625 C-32.97869091 53.02184182 -33.30333025 52.2511255 -34 49 C-34.99 48.67 -35.98 48.34 -37 48 C-39.48860955 41.50708455 -41.74135468 33.24455204 -39 26.5625 C-38.67 26.046875 -38.34 25.53125 -38 25 C-35.36 25 -32.72 25 -30 25 C-29.67 25.66 -29.34 26.32 -29 27 C-28.38125 27.2475 -27.7625 27.495 -27.125 27.75 C-24.12751857 29.51322437 -23.44611697 31.91056828 -22 35 C-21.34 35.33 -20.68 35.66 -20 36 C-19.67 36.66 -19.34 37.32 -19 38 C-19 30.74 -19 23.48 -19 16 C-17.68 16 -16.36 16 -15 16 C-15 16.99 -15 17.98 -15 19 C-13.68 18.34 -12.36 17.68 -11 17 C-10.34 19.31 -9.68 21.62 -9 24 C-5.78235549 19.17353323 -4.63738864 13.80178176 -5 8 C-4.34 8 -3.68 8 -3 8 C-3 6.35 -3 4.7 -3 3 C-2.34 3 -1.68 3 -1 3 C-0.67 2.01 -0.34 1.02 0 0 Z M-32 36 C-31 38 -31 38 -31 38 Z M-30 39 C-30.33 39.66 -30.66 40.32 -31 41 C-30.06553465 43.03144641 -29.06775224 45.03533587 -28 47 C-27.34 47 -26.68 47 -26 47 C-25.67 47.99 -25.34 48.98 -25 50 C-24.67 49.34 -24.34 48.68 -24 48 C-24.76721468 45.75583572 -24.76721468 45.75583572 -25.9375 43.375 C-26.31777344 42.55773437 -26.69804688 41.74046875 -27.08984375 40.8984375 C-27.39019531 40.27195313 -27.69054687 39.64546875 -28 39 C-28.66 39 -29.32 39 -30 39 Z M-24 50 C-23 52 -23 52 -23 52 Z M-23 52 C-22.34 52.66 -21.68 53.32 -21 54 C-21 53.34 -21 52.68 -21 52 C-21.66 52 -22.32 52 -23 52 Z " fill="#1F1F1F" transform="translate(124,189)"/>
<path d="M0 0 C0.66 0.33 1.32 0.66 2 1 C3.29781151 4.89343453 3.16915829 8.60287356 3.18945312 12.66235352 C3.19774643 13.54715393 3.20603973 14.43195435 3.21458435 15.34356689 C3.23198461 17.26532261 3.24715149 19.18709954 3.26036072 21.10888863 C3.28137364 24.1467813 3.30839649 27.18456713 3.33703613 30.22239685 C3.40689995 37.76600853 3.4663202 45.30969616 3.52606201 52.85339355 C3.57693648 59.22847461 3.63174071 65.60349786 3.69187927 71.97849846 C3.71851669 74.97763747 3.73929163 77.97678169 3.7598877 80.97596741 C3.7764854 82.80632792 3.79335677 84.63668597 3.81054688 86.46704102 C3.8168235 87.72556129 3.8168235 87.72556129 3.82322693 89.00950623 C3.76454651 93.13754146 3.76454651 93.13754146 5 97 C4.34 97 3.68 97 3 97 C3.08378906 97.74121094 3.16757812 98.48242188 3.25390625 99.24609375 C3.89129911 105.83786543 4.11696023 112.32223504 3.875 118.9375 C3.8654126 119.64640381 3.8558252 120.35530762 3.84594727 121.08569336 C3.56042543 126.77261654 1.94120396 129.16732194 -2 133 C-4.96248186 135.00943537 -7.20745444 135.22919252 -10.75 135.125 C-11.54921875 135.10695313 -12.3484375 135.08890625 -13.171875 135.0703125 C-13.77515625 135.04710937 -14.3784375 135.02390625 -15 135 C-15 135.66 -15 136.32 -15 137 C-21.93 137 -28.86 137 -36 137 C-36 136.34 -36 135.68 -36 135 C-36.56847656 135.03480469 -37.13695313 135.06960938 -37.72265625 135.10546875 C-44.07112604 135.32803614 -48.82828571 134.64309524 -53.875 130.4375 C-55.99483196 127.72882583 -56.12613166 125.89005035 -56.12939453 122.52099609 C-56.13250641 121.5787619 -56.13561829 120.63652771 -56.13882446 119.66574097 C-56.13684052 118.62878082 -56.13485657 117.59182068 -56.1328125 116.5234375 C-56.13413177 115.43386749 -56.13545105 114.34429749 -56.1368103 113.22171021 C-56.13874794 109.60611252 -56.13233194 105.99059003 -56.125 102.375 C-56.12411377 101.14434814 -56.12322754 99.91369629 -56.12231445 98.64575195 C-56.09887753 70.75761449 -55.60514127 42.88125177 -55 15 C-54.34 15 -53.68 15 -53 15 C-52.25792294 29.3961041 -51.81755631 43.76582187 -51.68359375 58.1796875 C-51.66293424 60.09880934 -51.64193612 62.01792757 -51.62062073 63.93704224 C-51.56632582 68.90483603 -51.51652229 73.87266424 -51.46777344 78.84051514 C-51.41686681 83.94318579 -51.36154784 89.0458086 -51.30664062 94.1484375 C-51.20019777 104.09891714 -51.09851707 114.04943894 -51 124 C-50.40703125 124.14308594 -49.8140625 124.28617187 -49.203125 124.43359375 C-46.4185979 125.14947394 -43.72039298 126.0725933 -41 127 C-41 127.66 -41 128.32 -41 129 C-31.1 129 -21.2 129 -11 129 C-11 128.34 -11 127.68 -11 127 C-9.824375 126.690625 -9.824375 126.690625 -8.625 126.375 C-5.82089513 125.24107711 -5.82089513 125.24107711 -4.86181641 122.60693359 C-3.68666461 117.68860708 -3.64308689 112.95541594 -3.5859375 107.9140625 C-3.56657135 106.85714203 -3.5472052 105.80022156 -3.5272522 104.71127319 C-3.46767086 101.34926316 -3.42115658 97.98721849 -3.375 94.625 C-3.33680052 92.33982916 -3.29774764 90.05467242 -3.2578125 87.76953125 C-3.16198698 82.179813 -3.07687711 76.59000924 -3 71 C-2.34 71 -1.68 71 -1 71 C-1.00222061 70.12525528 -1.00444122 69.25051056 -1.00672913 68.34925842 C-1.02672978 60.12324654 -1.04197298 51.89724277 -1.05181217 43.6712122 C-1.05704056 39.44168629 -1.0641374 35.2121804 -1.07543945 30.98266602 C-1.08626991 26.90431457 -1.09227717 22.82598243 -1.09487724 18.74761772 C-1.09673121 17.18822361 -1.10035127 15.6288306 -1.10573006 14.06944466 C-1.11294262 11.89270838 -1.11399085 9.71605286 -1.11352539 7.53930664 C-1.115746 6.29798477 -1.11796661 5.0566629 -1.12025452 3.77772522 C-1 1 -1 1 0 0 Z " fill="#464646" transform="translate(59,182)"/>
<path d="M0 0 C1.20591797 -0.00128906 2.41183594 -0.00257812 3.65429688 -0.00390625 C4.92466797 -0.00003906 6.19503906 0.00382812 7.50390625 0.0078125 C8.77041016 0.00394531 10.03691406 0.00007813 11.34179688 -0.00390625 C12.54900391 -0.00261719 13.75621094 -0.00132813 15 0 C16.11431396 0.00112793 17.22862793 0.00225586 18.37670898 0.00341797 C21.06640625 0.1328125 21.06640625 0.1328125 23.06640625 1.1328125 C23.06640625 4.1028125 23.06640625 7.0728125 23.06640625 10.1328125 C22.40640625 10.1328125 21.74640625 10.1328125 21.06640625 10.1328125 C21.39640625 14.0928125 21.72640625 18.0528125 22.06640625 22.1328125 C10.68140625 23.1228125 10.68140625 23.1228125 -0.93359375 24.1328125 C-0.93359375 24.7928125 -0.93359375 25.4528125 -0.93359375 26.1328125 C-1.92359375 26.1328125 -2.91359375 26.1328125 -3.93359375 26.1328125 C-3.93359375 26.7928125 -3.93359375 27.4528125 -3.93359375 28.1328125 C2.00640625 28.4628125 7.94640625 28.7928125 14.06640625 29.1328125 C14.06640625 29.7928125 14.06640625 30.4528125 14.06640625 31.1328125 C17.69640625 31.1328125 21.32640625 31.1328125 25.06640625 31.1328125 C24.73640625 32.4528125 24.40640625 33.7728125 24.06640625 35.1328125 C23.42703125 35.2565625 22.78765625 35.3803125 22.12890625 35.5078125 C21.44828125 35.7140625 20.76765625 35.9203125 20.06640625 36.1328125 C19.73640625 36.7928125 19.40640625 37.4528125 19.06640625 38.1328125 C18.40640625 37.4728125 17.74640625 36.8128125 17.06640625 36.1328125 C11.78640625 35.8028125 6.50640625 35.4728125 1.06640625 35.1328125 C1.06640625 47.6728125 1.06640625 60.2128125 1.06640625 73.1328125 C-0.41859375 73.6278125 -0.41859375 73.6278125 -1.93359375 74.1328125 C-2.26359375 75.1228125 -2.59359375 76.1128125 -2.93359375 77.1328125 C-3.59359375 76.8028125 -4.25359375 76.4728125 -4.93359375 76.1328125 C-4.60359375 62.9328125 -4.27359375 49.7328125 -3.93359375 36.1328125 C-5.25359375 35.8028125 -6.57359375 35.4728125 -7.93359375 35.1328125 C-10.09302194 31.89367021 -10.20592353 30.88421517 -10.18359375 27.1328125 C-10.18875 26.2665625 -10.19390625 25.4003125 -10.19921875 24.5078125 C-9.93359375 22.1328125 -9.93359375 22.1328125 -7.93359375 19.1328125 C-6.61359375 19.1328125 -5.29359375 19.1328125 -3.93359375 19.1328125 C-4.15015625 18.50375 -4.36671875 17.8746875 -4.58984375 17.2265625 C-6.41003442 11.63116156 -7.36145999 7.01597336 -6.93359375 1.1328125 C-5.13530298 -0.66547827 -2.42382216 0.00245592 0 0 Z " fill="#2A2B29" transform="translate(23.93359375,51.8671875)"/>
<path d="M0 0 C0.33 0 0.66 0 1 0 C1.14285714 7.42857143 1.14285714 7.42857143 0 11 C0.66 11 1.32 11 2 11 C2.33 10.34 2.66 9.68 3 9 C3.66 9 4.32 9 5 9 C4.51421457 12.12290635 4.0013988 14.99580359 3 18 C2.34 18 1.68 18 1 18 C0.731875 18.556875 0.46375 19.11375 0.1875 19.6875 C-1.10899496 22.21225334 -2.42476323 24.63714484 -4 27 C-4.66 27 -5.32 27 -6 27 C-6.18175781 27.61746094 -6.36351562 28.23492187 -6.55078125 28.87109375 C-8.25720447 34.62042737 -10.06654726 40.32305366 -12 46 C-10.68 46 -9.36 46 -8 46 C-8 46.66 -8 47.32 -8 48 C-10.31 48 -12.62 48 -15 48 C-15 50.31 -15 52.62 -15 55 C-14.67 54.34 -14.34 53.68 -14 53 C-12.35 53 -10.7 53 -9 53 C-10.485 53.495 -10.485 53.495 -12 54 C-11.9278125 54.99515625 -11.855625 55.9903125 -11.78125 57.015625 C-11.15514936 66.24613734 -10.90808321 75.40859884 -11.03710938 84.66113281 C-11.05888301 86.77401256 -11.03407608 88.88728285 -11 91 C-10.67 91.33 -10.34 91.66 -10 92 C-9.87465012 95.01276111 -9.81387984 98.00369583 -9.79467773 101.01782227 C-9.78477814 101.96406464 -9.77487854 102.91030701 -9.76467896 103.88522339 C-9.73296197 107.02892511 -9.70826639 110.17264198 -9.68359375 113.31640625 C-9.66303302 115.48974512 -9.64203679 117.66307991 -9.62062073 119.83641052 C-9.56530905 125.56896674 -9.51594003 131.30155958 -9.46777344 137.03417969 C-9.41762465 142.87893958 -9.3619041 148.723646 -9.30664062 154.56835938 C-9.19894787 166.04552728 -9.09752775 177.52274153 -9 189 C-9.66 189 -10.32 189 -11 189 C-12.53625389 185.92749223 -12.17953792 182.69302523 -12.20532227 179.31933594 C-12.21522186 178.52532883 -12.22512146 177.73132172 -12.23532104 176.91325378 C-12.26705662 174.27032489 -12.29178257 171.62737899 -12.31640625 168.984375 C-12.33700706 167.13421192 -12.35800429 165.28405322 -12.37937927 163.43389893 C-12.42342671 159.53652417 -12.46430848 155.63913388 -12.50268555 151.74169922 C-12.55124914 146.81078895 -12.60491721 141.87995345 -12.66065407 136.94911957 C-13.08913953 98.97681613 -13.08913953 98.97681613 -13 80 C-13.66 80 -14.32 80 -15 80 C-14.99777939 80.5927623 -14.99555878 81.1855246 -14.99327087 81.79624939 C-14.87071783 116.21278629 -15.12495594 150.59401225 -16 185 C-16.33 185 -16.66 185 -17 185 C-17.1314673 169.58625334 -17.26190043 154.17249818 -17.39115143 138.7587328 C-17.45120805 131.59948635 -17.51158452 124.44024289 -17.57275391 117.28100586 C-17.62615991 111.03029142 -17.67892514 104.77957192 -17.73096704 98.52884597 C-17.75846264 95.22890586 -17.78634338 91.9289698 -17.81480408 88.62903786 C-17.88548825 80.41940458 -17.94711849 72.20976641 -18 64 C-18.00766388 62.95960445 -18.01532776 61.91920891 -18.02322388 60.84728622 C-18.04320089 57.94986708 -18.05687801 55.05249301 -18.06835938 52.1550293 C-18.07486763 51.32138005 -18.08137589 50.48773081 -18.08808136 49.62881947 C-18.10582194 41.37239514 -17.24878968 33.644211 -14 26 C-13.34 26 -12.68 26 -12 26 C-11.79375 25.154375 -11.5875 24.30875 -11.375 23.4375 C-10.09511358 20.23778394 -9.36586599 19.20122819 -7.0625 16.875 C-3.40994637 12.91955168 -2.60252111 8.65231525 -1.54296875 3.4765625 C-1 1 -1 1 0 0 Z " fill="#555555" transform="translate(19,117)"/>
<path d="M0 0 C3.37462715 0.54723683 5.08235 1.0549 8 3 C9.74427627 9.43201876 9.74427627 9.43201876 8.01171875 13.08203125 C6.76770207 14.88383712 5.59286559 16.49641007 4 18 C3.34 18 2.68 18 2 18 C2.23834439 22.96269813 2.48693884 27.92474332 2.74462891 32.88647461 C2.83071243 34.57090662 2.91409957 36.25547886 2.99462891 37.94018555 C3.11154399 40.37591642 3.23847519 42.81096106 3.3671875 45.24609375 C3.40061249 45.98709824 3.43403748 46.72810272 3.46847534 47.49156189 C3.84883858 55.43453883 3.84883858 55.43453883 6 63 C7.31239297 63.70699853 8.64687642 64.37447717 10 65 C11.04808041 66.97522846 12.0520411 68.97481509 13 71 C13.99 71.495 13.99 71.495 15 72 C16.72487541 76.79132057 17.20705455 80.92716361 17 86 C16.01 85.505 16.01 85.505 15 85 C14.5859375 82.93359375 14.5859375 82.93359375 14.375 80.4375 C14.30023438 79.61121094 14.22546875 78.78492188 14.1484375 77.93359375 C14.09945312 77.29550781 14.05046875 76.65742188 14 76 C10.83333333 77.83333333 10.83333333 77.83333333 9 81 C8.566875 79.906875 8.13375 78.81375 7.6875 77.6875 C6.467566 74.82380517 5.24901836 73.15530927 3 71 C0 65.55555556 0 65.55555556 0 63 C-0.66 63 -1.32 63 -2 63 C-6.97669395 49.06525693 -5.10753877 32.55358023 -5 18 C-9.62 18 -14.24 18 -19 18 C-19 27.9 -19 37.8 -19 48 C-19.33 48 -19.66 48 -20 48 C-20 37.77 -20 27.54 -20 17 C-17.40125 16.95875 -14.8025 16.9175 -12.125 16.875 C-11.30789551 16.85679199 -10.49079102 16.83858398 -9.64892578 16.81982422 C-7.76504951 16.80522783 -5.88130688 16.90056518 -4 17 C-3.34 17.66 -2.68 18.32 -2 19 C0.50965614 18.29660434 0.50965614 18.29660434 3 17 C3.33 15.68 3.66 14.36 4 13 C0.37 13 -3.26 13 -7 13 C-7 12.34 -7 11.68 -7 11 C-3.535 10.505 -3.535 10.505 0 10 C0 9.34 0 8.68 0 8 C-3.29960141 6.3501993 -6.99127884 6.61741639 -10.625 6.4375 C-11.82769531 6.37272461 -11.82769531 6.37272461 -13.0546875 6.30664062 C-15.0362511 6.20048543 -17.01810271 6.09973145 -19 6 C-19 5.67 -19 5.34 -19 5 C-12.30386804 4.202163 -5.74233419 3.87089147 1 4 C0.67 2.68 0.34 1.36 0 0 Z " fill="#535353" transform="translate(45,70)"/>
<path d="M0 0 C1.32 0 2.64 0 4 0 C4 0.66 4 1.32 4 2 C4.5775 2.061875 5.155 2.12375 5.75 2.1875 C8.89301406 3.3224773 9.99902176 5.37371606 12 8 C12.70125 8.474375 13.4025 8.94875 14.125 9.4375 C16.67758646 11.56465539 16.98766848 13.89551667 18 17 C18.99 17.33 19.98 17.66 21 18 C21.33 18.99 21.66 19.98 22 21 C22.33 19.68 22.66 18.36 23 17 C22.34 16.67 21.68 16.34 21 16 C22.32 15.67 23.64 15.34 25 15 C25 18.63 25 22.26 25 26 C23.02 26.99 23.02 26.99 21 28 C20.18828772 30.55519921 20.18828772 30.55519921 20 33 C20.66 33 21.32 33 22 33 C23.06775224 34.96466413 24.06553465 36.96855359 25 39 C24.67 39.66 24.34 40.32 24 41 C23.01 41 22.02 41 21 41 C20.67 41.66 20.34 42.32 20 43 C20.9590625 43.185625 20.9590625 43.185625 21.9375 43.375 C22.618125 43.58125 23.29875 43.7875 24 44 C24.33 44.66 24.66 45.32 25 46 C25.99 46.66 26.98 47.32 28 48 C27.34 48.99 26.68 49.98 26 51 C25.29875 50.2575 24.5975 49.515 23.875 48.75 C21.10244908 45.93389677 21.10244908 45.93389677 17.875 43.9375 C15.16319541 42.10997951 13.87818463 40.59368353 12 38 C11.01 37.67 10.02 37.34 9 37 C7.96986723 35.35178756 6.96885372 33.68496298 6 32 C5.34 31.67 4.68 31.34 4 31 C3.05790983 29.22144796 2.19286047 27.40149035 1.375 25.5625 C0.92898437 24.57378906 0.48296875 23.58507812 0.0234375 22.56640625 C-1 20 -1 20 -1 18 C-1.66 18 -2.32 18 -3 18 C-3.19504458 15.89651926 -3.38078496 13.79217415 -3.5625 11.6875 C-3.66691406 10.51574219 -3.77132812 9.34398437 -3.87890625 8.13671875 C-4 5 -4 5 -3 2 C-2.01 2 -1.02 2 0 2 C0 1.34 0 0.68 0 0 Z M4 12 C4.33 13.98 4.66 15.96 5 18 C5.66 18 6.32 18 7 18 C7.268125 18.886875 7.53625 19.77375 7.8125 20.6875 C9.82029469 26.28819046 12.5713586 30.01422274 17 34 C17.99 34.33 18.98 34.66 20 35 C19.34 33.02 18.68 31.04 18 29 C17.34 29 16.68 29 16 29 C15.82984375 28.39671875 15.6596875 27.7934375 15.484375 27.171875 C14.0411508 22.41230582 12.89368062 19.28529302 9 16 C8.46375 15.2575 7.9275 14.515 7.375 13.75 C6.694375 12.88375 6.694375 12.88375 6 12 C5.34 12 4.68 12 4 12 Z " fill="#434343" transform="translate(78,157)"/>
<path d="M0 0 C0.66 0 1.32 0 2 0 C2.65655389 8.68761489 3.16311941 17.28217363 3 26 C2.67 25.34 2.34 24.68 2 24 C-0.52733235 23.34444881 -0.52733235 23.34444881 -3 23 C-2.7834375 23.61488281 -2.566875 24.22976562 -2.34375 24.86328125 C-2.0653125 25.67152344 -1.786875 26.47976562 -1.5 27.3125 C-1.2215625 28.11300781 -0.943125 28.91351563 -0.65625 29.73828125 C0 32 0 32 0 35 C0.66 35.33 1.32 35.66 2 36 C0.68 36 -0.64 36 -2 36 C-2.44787663 40.11089253 -2.44787663 40.11089253 0.4375 42.6875 C1.283125 43.450625 2.12875 44.21375 3 45 C4 46 4 46 4.11352539 48.59204102 C4.10828857 49.71795654 4.10305176 50.84387207 4.09765625 52.00390625 C4.09443359 53.21884766 4.09121094 54.43378906 4.08789062 55.68554688 C4.07951172 56.96494141 4.07113281 58.24433594 4.0625 59.5625 C4.05798828 60.84576172 4.05347656 62.12902344 4.04882812 63.45117188 C4.03699545 66.63416022 4.02051068 69.81705762 4 73 C3.34 73 2.68 73 2 73 C2 64.09 2 55.18 2 46 C1.34 46 0.68 46 0 46 C-0.33 44.68 -0.66 43.36 -1 42 C-1.639375 41.896875 -2.27875 41.79375 -2.9375 41.6875 C-3.618125 41.460625 -4.29875 41.23375 -5 41 C-5.495 39.515 -5.495 39.515 -6 38 C-6.66 38 -7.32 38 -8 38 C-8.495 36.515 -8.495 36.515 -9 35 C-9.825 34.195625 -10.65 33.39125 -11.5 32.5625 C-13.97869091 30.02184182 -14.30333025 29.2511255 -15 26 C-15.99 25.67 -16.98 25.34 -18 25 C-20.48860955 18.50708455 -22.74135468 10.24455204 -20 3.5625 C-19.67 3.046875 -19.34 2.53125 -19 2 C-16.36 2 -13.72 2 -11 2 C-10.67 2.66 -10.34 3.32 -10 4 C-9.38125 4.2475 -8.7625 4.495 -8.125 4.75 C-5.12751857 6.51322437 -4.44611697 8.91056828 -3 12 C-2.34 12.33 -1.68 12.66 -1 13 C-0.67 13.66 -0.34 14.32 0 15 C0 10.05 0 5.1 0 0 Z M-13 13 C-12 15 -12 15 -12 15 Z M-11 16 C-11.33 16.66 -11.66 17.32 -12 18 C-11.06553465 20.03144641 -10.06775224 22.03533587 -9 24 C-8.34 24 -7.68 24 -7 24 C-6.67 24.99 -6.34 25.98 -6 27 C-5.67 26.34 -5.34 25.68 -5 25 C-5.76721468 22.75583572 -5.76721468 22.75583572 -6.9375 20.375 C-7.31777344 19.55773437 -7.69804688 18.74046875 -8.08984375 17.8984375 C-8.39019531 17.27195313 -8.69054687 16.64546875 -9 16 C-9.66 16 -10.32 16 -11 16 Z M-5 27 C-4 29 -4 29 -4 29 Z M-4 29 C-3.34 29.66 -2.68 30.32 -2 31 C-2 30.34 -2 29.68 -2 29 C-2.66 29 -3.32 29 -4 29 Z " fill="#474747" transform="translate(105,212)"/>
<path d="M0 0 C4 0 4 0 5.6875 1.125 C8.81463776 5.59233966 8.00225664 11.19564404 7.5625 16.375 C7.46066406 17.62023437 7.35882813 18.86546875 7.25390625 20.1484375 C7.17011719 21.08945313 7.08632812 22.03046875 7 23 C6.34 23 5.68 23 5 23 C4.67 25.97 4.34 28.94 4 32 C2 29 2 29 1 27 C0.67 27.66 0.34 28.32 0 29 C-0.66 29 -1.32 29 -2 29 C-1.979375 29.804375 -1.95875 30.60875 -1.9375 31.4375 C-2 34 -2 34 -3 35 C-3.2165625 36.546875 -3.2165625 36.546875 -3.4375 38.125 C-3.9899633 41.93085831 -4.72008003 45.37356008 -6 49 C-6.99 49.66 -7.98 50.32 -9 51 C-9.99 47.535 -9.99 47.535 -11 44 C-12.485 44.495 -12.485 44.495 -14 45 C-14 40.71 -14 36.42 -14 32 C-13.67 32 -13.34 32 -13 32 C-12.01 26.72 -11.02 21.44 -10 16 C-9.34 16 -8.68 16 -8 16 C-7.8453125 14.7315625 -7.8453125 14.7315625 -7.6875 13.4375 C-6.89504137 9.47520685 -5.89276847 6.57522933 -4 3 C-1.8125 2.0625 -1.8125 2.0625 0 2 C0 1.34 0 0.68 0 0 Z M-1 15 C-3.60026749 21.80568135 -3.60026749 21.80568135 -4 29 C-1.3184721 25.92307254 -0.57912193 23.80265337 -0.3125 19.75 C-0.21388672 18.41195312 -0.21388672 18.41195312 -0.11328125 17.046875 C-0.05720703 16.03367188 -0.05720703 16.03367188 0 15 C-0.33 15 -0.66 15 -1 15 Z M-6 36 C-5 38 -5 38 -5 38 Z M-8 43 C-7 45 -7 45 -7 45 Z " fill="#424242" transform="translate(123,163)"/>
<path d="M0 0 C0.66 0.33 1.32 0.66 2 1 C3.29781151 4.89343453 3.16915829 8.60287356 3.18945312 12.66235352 C3.19774643 13.54715393 3.20603973 14.43195435 3.21458435 15.34356689 C3.23198461 17.26532261 3.24715149 19.18709954 3.26036072 21.10888863 C3.28137364 24.1467813 3.30839649 27.18456713 3.33703613 30.22239685 C3.40689995 37.76600853 3.4663202 45.30969616 3.52606201 52.85339355 C3.57693648 59.22847461 3.63174071 65.60349786 3.69187927 71.97849846 C3.71851669 74.97763747 3.73929163 77.97678169 3.7598877 80.97596741 C3.7764854 82.80632792 3.79335677 84.63668597 3.81054688 86.46704102 C3.81473129 87.30605453 3.81891571 88.14506805 3.82322693 89.00950623 C3.76454651 93.13754146 3.76454651 93.13754146 5 97 C4.34 97 3.68 97 3 97 C3.08378906 97.74121094 3.16757812 98.48242188 3.25390625 99.24609375 C3.89650705 105.89172479 4.09368298 112.39537111 3.8125 119.0625 C3.79453369 119.78816162 3.77656738 120.51382324 3.75805664 121.26147461 C3.56389042 124.82953983 3.24701012 126.6993534 0.94921875 129.49609375 C0.30597656 129.99238281 -0.33726563 130.48867188 -1 131 C-0.67 129.02 -0.34 127.04 0 125 C-0.66 124.67 -1.32 124.34 -2 124 C-1.89289579 107.98001573 -1.780159 91.96008266 -1.66066074 75.9401865 C-1.60531168 68.50237687 -1.55182698 61.06456244 -1.50268555 53.62670898 C-1.45986426 47.1461565 -1.41359157 40.66563958 -1.36312145 34.18514198 C-1.33650387 30.75171548 -1.31165047 27.31829611 -1.29092598 23.88482857 C-1.26776274 20.05801819 -1.23689601 16.23129173 -1.20532227 12.40454102 C-1.1995668 11.25799545 -1.19381134 10.11144989 -1.18788147 8.93016052 C-1.17809265 7.89384491 -1.16830383 6.8575293 -1.15821838 5.78981018 C-1.14853956 4.43062643 -1.14853956 4.43062643 -1.1386652 3.04398441 C-1 1 -1 1 0 0 Z " fill="#2B2B2B" transform="translate(59,182)"/>
<path d="M0 0 C0.66 0 1.32 0 2 0 C2.74207706 14.3961041 3.18244369 28.76582187 3.31640625 43.1796875 C3.33706576 45.09880934 3.35806388 47.01792757 3.37937927 48.93704224 C3.43367418 53.90483603 3.48347771 58.87266424 3.53222656 63.84051514 C3.58313319 68.94318579 3.63845216 74.0458086 3.69335938 79.1484375 C3.79980223 89.09891714 3.90148293 99.04943894 4 109 C4.66 109 5.32 109 6 109 C5.67 110.98 5.34 112.96 5 115 C2.5625 114.625 2.5625 114.625 0 114 C-1.18961845 111.6207631 -1.12682318 110.17603475 -1.12939453 107.52099609 C-1.13250641 106.5787619 -1.13561829 105.63652771 -1.13882446 104.66574097 C-1.13684052 103.62878082 -1.13485657 102.59182068 -1.1328125 101.5234375 C-1.13413177 100.43386749 -1.13545105 99.34429749 -1.1368103 98.22171021 C-1.13874794 94.60611252 -1.13233194 90.99059003 -1.125 87.375 C-1.12411377 86.14434814 -1.12322754 84.91369629 -1.12231445 83.64575195 C-1.09887753 55.75761449 -0.60514127 27.88125177 0 0 Z " fill="#1B1B1B" transform="translate(4,197)"/>
<path d="M0 0 C0 0.66 0 1.32 0 2 C0.99 2.33 1.98 2.66 3 3 C2.67 3.66 2.34 4.32 2 5 C0.04910278 5.40293884 0.04910278 5.40293884 -2.46826172 5.60522461 C-3.82972321 5.7153035 -3.82972321 5.7153035 -5.21868896 5.8276062 C-9.31504111 6.0815101 -13.40473491 6.23084706 -17.5078125 6.31640625 C-18.78505692 6.3475779 -18.78505692 6.3475779 -20.08810425 6.37937927 C-22.76699983 6.44395751 -25.44598017 6.50332583 -28.125 6.5625 C-29.95834156 6.60577282 -31.79167503 6.64938965 -33.625 6.69335938 C-38.08324993 6.79954249 -42.54158372 6.90105841 -47 7 C-47 9.64 -47 12.28 -47 15 C-47.33 15 -47.66 15 -48 15 C-48.33 10.71 -48.66 6.42 -49 2 C-46.13822943 0.56911472 -44.06624227 1.40008303 -41 2 C-41 1.34 -41 0.68 -41 0 C-35.4542034 -1.68623363 -29.53378249 -1.42020639 -23.78320312 -1.61254883 C-21.63874291 -1.68702273 -19.49536194 -1.77780512 -17.3515625 -1.86914062 C-15.97659772 -1.9176748 -14.60159805 -1.96523259 -13.2265625 -2.01171875 C-11.36378662 -2.08072388 -11.36378662 -2.08072388 -9.46337891 -2.15112305 C-5.93961472 -1.99736511 -3.26889268 -1.28181431 0 0 Z " fill="#1A1A1A" transform="translate(52,163)"/>
<path d="M0 0 C3.96 0 7.92 0 12 0 C12 0.66 12 1.32 12 2 C15.63 2 19.26 2 23 2 C22.67 3.32 22.34 4.64 22 6 C21.360625 6.12375 20.72125 6.2475 20.0625 6.375 C19.381875 6.58125 18.70125 6.7875 18 7 C17.67 7.66 17.34 8.32 17 9 C16.34 8.34 15.68 7.68 15 7 C9.72 6.67 4.44 6.34 -1 6 C-1 18.54 -1 31.08 -1 44 C-2.485 44.495 -2.485 44.495 -4 45 C-4.33 45.99 -4.66 46.98 -5 48 C-5.66 47.67 -6.32 47.34 -7 47 C-6.9285376 46.17935059 -6.8570752 45.35870117 -6.78344727 44.51318359 C-6.0367976 35.19212659 -5.87920888 25.96917582 -5.9375 16.625 C-5.94253411 15.1953141 -5.94709357 13.76562645 -5.95117188 12.3359375 C-5.96200535 8.89058755 -5.97916016 5.44530573 -6 2 C-3.50907189 0.75453595 -2.58919267 1.2232422 0 2 C0 1.34 0 0.68 0 0 Z " fill="#242424" transform="translate(26,81)"/>
<path d="M0 0 C2.62895146 3.94342719 3.05927998 7.36359419 4 12 C4.99 9.03 5.98 6.06 7 3 C8.32 3.33 9.64 3.66 11 4 C11 5.65 11 7.3 11 9 C10.67 8.34 10.34 7.68 10 7 C9.34 7 8.68 7 8 7 C8.33 10.63 8.66 14.26 9 18 C9.66 18 10.32 18 11 18 C11.33773437 18.92683594 11.67546875 19.85367188 12.0234375 20.80859375 C12.69246094 22.60490234 12.69246094 22.60490234 13.375 24.4375 C13.81585938 25.63246094 14.25671875 26.82742187 14.7109375 28.05859375 C15.67085236 31.10196898 15.67085236 31.10196898 18 32 C18.33 31.34 18.66 30.68 19 30 C19.33 31.98 19.66 33.96 20 36 C20.66 36 21.32 36 22 36 C22.33 37.98 22.66 39.96 23 42 C21.02 42.495 21.02 42.495 19 43 C20.485 45.475 20.485 45.475 22 48 C21.01 48 20.02 48 19 48 C19 47.34 19 46.68 19 46 C18.34 46 17.68 46 17 46 C16.896875 45.360625 16.79375 44.72125 16.6875 44.0625 C16.460625 43.381875 16.23375 42.70125 16 42 C15.01 41.67 14.02 41.34 13 41 C6.94832534 33.73419625 3.68940971 24.30703111 3 15 C2.34 15 1.68 15 1 15 C0.67 10.05 0.34 5.1 0 0 Z " fill="#595959" transform="translate(74,104)"/>
<path d="M0 0 C0.69222656 0.06703125 1.38445312 0.1340625 2.09765625 0.203125 C3.9375 0.75 3.9375 0.75 5.9375 3.75 C6.16455078 6.01831055 6.16455078 6.01831055 6.1328125 8.63671875 C6.12636719 9.57451172 6.11992188 10.51230469 6.11328125 11.47851562 C6.09652344 12.45498047 6.07976562 13.43144531 6.0625 14.4375 C6.05347656 15.42556641 6.04445313 16.41363281 6.03515625 17.43164062 C6.0115843 19.87133765 5.97868022 22.31054697 5.9375 24.75 C3.9375 22.75 3.9375 22.75 3.7421875 18.8359375 C3.75549624 17.26550649 3.77936398 15.69513779 3.8125 14.125 C3.82152344 13.32320312 3.83054687 12.52140625 3.83984375 11.6953125 C3.86343777 9.71341477 3.89930935 7.73167019 3.9375 5.75 C2.9475 6.245 2.9475 6.245 1.9375 6.75 C1.64858894 9.35913493 1.46946301 11.88268342 1.375 14.5 C1.18511393 18.99262362 0.98375825 23.35744471 -0.0625 27.75 C-0.7225 27.75 -1.3825 27.75 -2.0625 27.75 C-2.0625 21.81 -2.0625 15.87 -2.0625 9.75 C-2.3925 10.41 -2.7225 11.07 -3.0625 11.75 C-3.7225 11.75 -4.3825 11.75 -5.0625 11.75 C-5.3925 14.06 -5.7225 16.37 -6.0625 18.75 C-7.3825 17.76 -8.7025 16.77 -10.0625 15.75 C-11.0525 18.225 -11.0525 18.225 -12.0625 20.75 C-12.7225 20.75 -13.3825 20.75 -14.0625 20.75 C-13.7325 17.45 -13.4025 14.15 -13.0625 10.75 C-12.4025 10.75 -11.7425 10.75 -11.0625 10.75 C-10.77375 9.656875 -10.485 8.56375 -10.1875 7.4375 C-9.0625 3.75 -9.0625 3.75 -7.0625 0.75 C-4.18049341 -0.21066886 -2.91744009 -0.32718954 0 0 Z " fill="#4B4B4B" transform="translate(107.0625,57.25)"/>
<path d="M0 0 C2.77189158 3.21897087 3 4.6935573 3 9 C2.34 9 1.68 9 1 9 C1.061875 9.886875 1.12375 10.77375 1.1875 11.6875 C1.22410208 17.5926351 -0.56365929 23.31448468 -2 29 C-2.66 28.67 -3.32 28.34 -4 28 C-3.34 23.71 -2.68 19.42 -2 15 C-2.33 15 -2.66 15 -3 15 C-3.33 16.65 -3.66 18.3 -4 20 C-4.66 20 -5.32 20 -6 20 C-6 20.99 -6 21.98 -6 23 C-6.66 23 -7.32 23 -8 23 C-7.67 20.36 -7.34 17.72 -7 15 C-6.34 15 -5.68 15 -5 15 C-5.33 13.68 -5.66 12.36 -6 11 C-7.65 14.3 -9.3 17.6 -11 21 C-12.23593891 17.29218328 -11.5678132 16.32489747 -10.0625 12.8125 C-9.68222656 11.91144531 -9.30195312 11.01039062 -8.91015625 10.08203125 C-8.60980469 9.39496094 -8.30945313 8.70789063 -8 8 C-10.50360302 8.65898966 -10.50360302 8.65898966 -13 10 C-14.02818386 12.15824934 -14.02818386 12.15824934 -14.3125 14.625 C-14.52326172 15.85089844 -14.52326172 15.85089844 -14.73828125 17.1015625 C-14.82464844 17.72804688 -14.91101563 18.35453125 -15 19 C-15.66 19 -16.32 19 -17 19 C-16.44894091 15.0507432 -15.61064629 11.65079826 -14 8 C-13.34 8 -12.68 8 -12 8 C-11.5978125 6.576875 -11.5978125 6.576875 -11.1875 5.125 C-9.05374686 -0.49013984 -5.52458858 -0.69057357 0 0 Z " fill="#222222" transform="translate(127,108)"/>
<path d="M0 0 C2 2 2 2 2.875 4.875 C4.09032542 8.25090393 5.38114607 9.62666363 8 12 C8.99 13.485 8.99 13.485 10 15 C10.66 14.67 11.32 14.34 12 14 C12.12375 14.969375 12.2475 15.93875 12.375 16.9375 C12.58125 17.948125 12.7875 18.95875 13 20 C13.66 20.33 14.32 20.66 15 21 C13.68 21 12.36 21 11 21 C10.55212337 25.11089253 10.55212337 25.11089253 13.4375 27.6875 C14.283125 28.450625 15.12875 29.21375 16 30 C17 31 17 31 17.11352539 33.59204102 C17.10828857 34.71795654 17.10305176 35.84387207 17.09765625 37.00390625 C17.09443359 38.21884766 17.09121094 39.43378906 17.08789062 40.68554688 C17.07951172 41.96494141 17.07113281 43.24433594 17.0625 44.5625 C17.05798828 45.84576172 17.05347656 47.12902344 17.04882812 48.45117188 C17.03699545 51.63416022 17.02051068 54.81705762 17 58 C16.34 58 15.68 58 15 58 C15 49.09 15 40.18 15 31 C14.34 31 13.68 31 13 31 C12.67 29.68 12.34 28.36 12 27 C11.360625 26.896875 10.72125 26.79375 10.0625 26.6875 C9.0415625 26.3471875 9.0415625 26.3471875 8 26 C7.67 25.01 7.34 24.02 7 23 C6.34 23 5.68 23 5 23 C4.67 22.01 4.34 21.02 4 20 C3.195625 19.2575 2.39125 18.515 1.5625 17.75 C-1.53380615 14.42713486 -2.05930698 12.3613949 -3 8 C-2.01 7.34 -1.02 6.68 0 6 C0.2502157 2.91634129 0.2502157 2.91634129 0 0 Z " fill="#515151" transform="translate(92,227)"/>
<path d="M0 0 C0.33 0 0.66 0 1 0 C1.14285714 7.42857143 1.14285714 7.42857143 0 11 C0.66 11 1.32 11 2 11 C2.33 10.34 2.66 9.68 3 9 C3.66 9 4.32 9 5 9 C4.51421457 12.12290635 4.0013988 14.99580359 3 18 C2.34 18 1.68 18 1 18 C0.731875 18.556875 0.46375 19.11375 0.1875 19.6875 C-1.10899496 22.21225334 -2.42476323 24.63714484 -4 27 C-4.66 27 -5.32 27 -6 27 C-6.19335938 27.65226562 -6.38671875 28.30453125 -6.5859375 28.9765625 C-7.98640448 33.6771398 -9.41208726 38.35840891 -11 43 C-11.33 43 -11.66 43 -12 43 C-12.19294408 38.17639811 -11.75747614 34.50353262 -10 30 C-10.99 29.67 -11.98 29.34 -13 29 C-13.33 30.98 -13.66 32.96 -14 35 C-14.66 35 -15.32 35 -16 35 C-15.51421457 31.87709365 -15.0013988 29.00419641 -14 26 C-13.34 26 -12.68 26 -12 26 C-11.79375 25.154375 -11.5875 24.30875 -11.375 23.4375 C-10.09511358 20.23778394 -9.36586599 19.20122819 -7.0625 16.875 C-3.40994637 12.91955168 -2.60252111 8.65231525 -1.54296875 3.4765625 C-1 1 -1 1 0 0 Z " fill="#1D1D1D" transform="translate(19,117)"/>
<path d="M0 0 C0.33 0 0.66 0 1 0 C1.02468857 4.5206665 1.04285449 9.0412939 1.05493164 13.56201172 C1.05996552 15.10043013 1.06679308 16.63884375 1.07543945 18.17724609 C1.08754639 20.38640526 1.09323769 22.59550126 1.09765625 24.8046875 C1.10281754 25.49432587 1.10797882 26.18396423 1.11329651 26.89450073 C1.11387171 31.77225659 1.11387171 31.77225659 0 34 C-0.66 34 -1.32 34 -2 34 C-2 34.66 -2 35.32 -2 36 C-2.66 36 -3.32 36 -4 36 C-4 36.99 -4 37.98 -4 39 C-4.66 39 -5.32 39 -6 39 C-7.20272819 36.59454362 -7.10071472 35.05003047 -7.0625 32.375 C-7.05347656 31.55773437 -7.04445313 30.74046875 -7.03515625 29.8984375 C-7.02355469 29.27195312 -7.01195313 28.64546875 -7 28 C-8.32 27.67 -9.64 27.34 -11 27 C-11.1546875 28.918125 -11.1546875 28.918125 -11.3125 30.875 C-11.48828125 33.0546875 -11.48828125 33.0546875 -12 35 C-12.99 35.66 -13.98 36.32 -15 37 C-17.57880677 25.55654497 -17.57880677 25.55654497 -17 20 C-13.69946426 17.79964284 -11.84812609 17.55600122 -7.94140625 18.1171875 C-5.24787655 19.34201187 -4.69583199 20.7715233 -3.5 23.4375 C-2.63371332 25.76377845 -2 27.51927165 -2 30 C-1.34 30 -0.68 30 0 30 C0 20.1 0 10.2 0 0 Z " fill="#545454" transform="translate(92,80)"/>
<path d="M0 0 C0.33 0 0.66 0 1 0 C1.05151277 7.30587687 1.08606672 14.61170548 1.10986328 21.91772461 C1.11980353 24.39332834 1.13336041 26.86892072 1.15087891 29.34448242 C1.4155003 67.75349911 1.4155003 67.75349911 -2 78 C-4.475 78.495 -4.475 78.495 -7 79 C-9.34293081 75.48560378 -9.14659323 74.53922896 -8.7578125 70.45703125 C-8.66113281 69.38388672 -8.56445312 68.31074219 -8.46484375 67.20507812 C-8.35269531 66.08552734 -8.24054688 64.96597656 -8.125 63.8125 C-8.02058594 62.68134766 -7.91617188 61.55019531 -7.80859375 60.38476562 C-7.54904762 57.58874593 -7.27912734 54.79412165 -7 52 C-6.34 52 -5.68 52 -5 52 C-5 55.96 -5 59.92 -5 64 C-4.34 64 -3.68 64 -3 64 C-1.11069972 49.95346311 -0.58818496 36.03625539 -0.375 21.875 C-0.33669929 19.74087161 -0.29764121 17.60675667 -0.2578125 15.47265625 C-0.16317261 10.31521704 -0.07868013 5.15770635 0 0 Z " fill="#616161" transform="translate(113,241)"/>
<path d="M0 0 C0.66 0.33 1.32 0.66 2 1 C2 24.1 2 47.2 2 71 C1.01 70.34 0.02 69.68 -1 69 C-1.36749268 66.18467712 -1.36749268 66.18467712 -1.35644531 62.54663086 C-1.35848969 61.8847023 -1.36053406 61.22277374 -1.36264038 60.54078674 C-1.36565343 58.34852655 -1.34715836 56.15701476 -1.328125 53.96484375 C-1.32506846 52.44552293 -1.32319154 50.92619932 -1.32244873 49.40687561 C-1.31784257 46.22158093 -1.30340386 43.03653863 -1.28125 39.85131836 C-1.25294329 35.7597769 -1.24203655 31.66843423 -1.2375679 27.57680416 C-1.2334197 24.43964126 -1.22360766 21.30251892 -1.21169281 18.16537666 C-1.2059792 16.65622853 -1.20122412 15.14707646 -1.19742584 13.63792229 C-1.19058317 11.53320263 -1.17696113 9.42864342 -1.16113281 7.32397461 C-1.15430481 6.12421494 -1.14747681 4.92445526 -1.14044189 3.68833923 C-1 1 -1 1 0 0 Z " fill="#161616" transform="translate(59,182)"/>
<path d="M0 0 C0.99 0.495 0.99 0.495 2 1 C2.33 33.01 2.66 65.02 3 98 C2.34 98 1.68 98 1 98 C-0.7026057 94.59478859 -0.12864821 90.70607881 -0.11352539 86.96044922 C-0.11367142 86.02381439 -0.11381744 85.08717957 -0.1139679 84.12216187 C-0.11326944 81.01631378 -0.10548015 77.91052515 -0.09765625 74.8046875 C-0.09579183 72.65520256 -0.09436804 70.5057172 -0.09336853 68.35623169 C-0.08954522 62.69104851 -0.07971651 57.02589085 -0.06866455 51.36071777 C-0.05844644 45.58292994 -0.05387005 39.805138 -0.04882812 34.02734375 C-0.03809409 22.6848846 -0.02101989 11.34244442 0 0 Z " fill="#AAAAAA" transform="translate(7,208)"/>
<path d="M0 0 C3.37462715 0.54723683 5.08235 1.0549 8 3 C9.74427627 9.43201876 9.74427627 9.43201876 8.01171875 13.08203125 C6.76770207 14.88383712 5.59286559 16.49641007 4 18 C3.34 18 2.68 18 2 18 C2 22.95 2 27.9 2 33 C1.34 33 0.68 33 0 33 C0 28.05 0 23.1 0 18 C0.99 17.67 1.98 17.34 3 17 C3.33 15.68 3.66 14.36 4 13 C0.37 13 -3.26 13 -7 13 C-7 12.34 -7 11.68 -7 11 C-3.535 10.505 -3.535 10.505 0 10 C0 9.34 0 8.68 0 8 C-3.29960141 6.3501993 -6.99127884 6.61741639 -10.625 6.4375 C-11.42679688 6.39431641 -12.22859375 6.35113281 -13.0546875 6.30664062 C-15.0362511 6.20048543 -17.01810271 6.09973145 -19 6 C-19 5.67 -19 5.34 -19 5 C-12.30386804 4.202163 -5.74233419 3.87089147 1 4 C0.67 2.68 0.34 1.36 0 0 Z " fill="#6D6E6D" transform="translate(45,70)"/>
<path d="M0 0 C0.99 0.99 1.98 1.98 3 3 C2.67402832 3.99201416 2.34805664 4.98402832 2.01220703 6.00610352 C0.88362051 9.97257939 0.74291562 13.79897304 0.8046875 17.90234375 C0.8075174 18.6249086 0.81034729 19.34747345 0.81326294 20.0919342 C0.82435614 22.37396616 0.84943912 24.65558897 0.875 26.9375 C0.88504389 28.49543699 0.89416726 30.05338021 0.90234375 31.61132812 C0.92425967 35.40770699 0.95871262 39.2037844 1 43 C-0.65 42.67 -2.3 42.34 -4 42 C-4 30.12 -4 18.24 -4 6 C-3.34 6 -2.68 6 -2 6 C-1.855625 5.195625 -1.71125 4.39125 -1.5625 3.5625 C-1 1 -1 1 0 0 Z " fill="#171717" transform="translate(97,72)"/>
<path d="M0 0 C-0.55720046 2.23410852 -1.11830588 4.46713922 -1.68359375 6.69921875 C-3.21808885 12.78154388 -4.67168906 18.86933414 -6 25 C-6.66 24.67 -7.32 24.34 -8 24 C-8 23.34 -8 22.68 -8 22 C-8.66 22 -9.32 22 -10 22 C-10 22.99 -10 23.98 -10 25 C-10.66 25 -11.32 25 -12 25 C-12.12375 25.5775 -12.2475 26.155 -12.375 26.75 C-13.00648824 29.02335767 -13.88858191 30.9253529 -15 33 C-15.8723412 30.00519083 -16.10829766 27.36424089 -16.0625 24.25 C-16.05347656 23.45078125 -16.04445313 22.6515625 -16.03515625 21.828125 C-16.02355469 21.22484375 -16.01195313 20.6215625 -16 20 C-15.34 20 -14.68 20 -14 20 C-13.01 16.535 -13.01 16.535 -12 13 C-11.34 13 -10.68 13 -10 13 C-10 12.34 -10 11.68 -10 11 C-9.01 11 -8.02 11 -7 11 C-6.89042969 10.37351562 -6.78085938 9.74703125 -6.66796875 9.1015625 C-6.50941406 8.28429687 -6.35085937 7.46703125 -6.1875 6.625 C-6.03667969 5.81289062 -5.88585937 5.00078125 -5.73046875 4.1640625 C-4.72269948 1.17847868 -3.19663259 0 0 0 Z " fill="#2D2E2E" transform="translate(119,116)"/>
<path d="M0 0 C0.66 0 1.32 0 2 0 C2.33 1.98 2.66 3.96 3 6 C4.32 5.67 5.64 5.34 7 5 C7 8.3 7 11.6 7 15 C6.34 15 5.68 15 5 15 C4.67 17.97 4.34 20.94 4 24 C2 21 2 21 1 19 C0.67 19.66 0.34 20.32 0 21 C-0.66 21 -1.32 21 -2 21 C-2 22.65 -2 24.3 -2 26 C-2.66 26 -3.32 26 -4 26 C-3.57064777 21.92115379 -3.11315981 18.3583394 -1.875 14.4375 C-0.88856649 10.5622255 -1.40952307 7.91190967 -2 4 C-1.0625 1.5625 -1.0625 1.5625 0 0 Z " fill="#585858" transform="translate(123,171)"/>
<path d="M0 0 C0.66 0 1.32 0 2 0 C2.07634871 6.8317953 2.12872499 13.66347968 2.16479492 20.49560547 C2.17983911 22.8175874 2.20027945 25.13954112 2.22631836 27.46142578 C2.26289345 30.80768823 2.27977054 34.15357344 2.29296875 37.5 C2.30845261 38.5305249 2.32393646 39.5610498 2.33988953 40.62280273 C2.34131809 46.8038477 1.54949369 51.35406241 -1 57 C-4.465 57.495 -4.465 57.495 -8 58 C-8 57.34 -8 56.68 -8 56 C-7.21625 55.79375 -6.4325 55.5875 -5.625 55.375 C-2.82089513 54.24107711 -2.82089513 54.24107711 -1.86181641 51.60693359 C-0.68666461 46.68860708 -0.64308689 41.95541594 -0.5859375 36.9140625 C-0.56657135 35.85714203 -0.5472052 34.80022156 -0.5272522 33.71127319 C-0.46767086 30.34926316 -0.42115658 26.98721849 -0.375 23.625 C-0.33680052 21.33982916 -0.29774764 19.05467242 -0.2578125 16.76953125 C-0.16198698 11.179813 -0.07687711 5.59000924 0 0 Z " fill="#4E4E4E" transform="translate(56,253)"/>
<path d="M0 0 C3 0 3 0 4.6875 1.5 C5.120625 1.995 5.55375 2.49 6 3 C6.33 2.34 6.66 1.68 7 1 C7.33 2.98 7.66 4.96 8 7 C8.66 7 9.32 7 10 7 C10.33 8.98 10.66 10.96 11 13 C9.68 13.33 8.36 13.66 7 14 C7.99 15.65 8.98 17.3 10 19 C9.01 19 8.02 19 7 19 C7 18.34 7 17.68 7 17 C6.34 17 5.68 17 5 17 C4.896875 16.360625 4.79375 15.72125 4.6875 15.0625 C4.460625 14.381875 4.23375 13.70125 4 13 C3.01 12.67 2.02 12.34 1 12 C-1.00075037 8.8559637 -2.08398749 6.94485926 -1.75 3.1875 C-1 1 -1 1 0 0 Z " fill="#5B5B5B" transform="translate(86,133)"/>
<path d="M0 0 C0.33 0.66 0.66 1.32 1 2 C0.0625 4.125 0.0625 4.125 -1 6 C-0.01 6 0.98 6 2 6 C2.66 6 3.32 6 4 6 C3.6875 7.9375 3.6875 7.9375 3 10 C2.01 10.33 1.02 10.66 0 11 C-0.95953524 13.12550718 -0.95953524 13.12550718 -1.5625 15.6875 C-1.80742187 16.58597656 -2.05234375 17.48445313 -2.3046875 18.41015625 C-2.53414062 19.26480469 -2.76359375 20.11945313 -3 21 C-3.65629516 23.00342734 -4.31760646 25.00531118 -5 27 C-5.33 27 -5.66 27 -6 27 C-6.19294408 22.17639811 -5.75747614 18.50353262 -4 14 C-4.99 13.67 -5.98 13.34 -7 13 C-7.33 14.98 -7.66 16.96 -8 19 C-8.66 19 -9.32 19 -10 19 C-9.51421457 15.87709365 -9.0013988 13.00419641 -8 10 C-7.34 10 -6.68 10 -6 10 C-5.7525 9.0925 -5.505 8.185 -5.25 7.25 C-3.96018658 3.89648511 -2.68028958 2.32291764 0 0 Z " fill="#454545" transform="translate(13,133)"/>
<path d="M0 0 C0 3.63 0 7.26 0 11 C-1.98 11.99 -1.98 11.99 -4 13 C-4.81171228 15.55519921 -4.81171228 15.55519921 -5 18 C-5.66 16.68 -6.32 15.36 -7 14 C-7.66 14 -8.32 14 -9 14 C-10.625 11.25 -10.625 11.25 -12 8 C-11.1875 5.625 -11.1875 5.625 -10 4 C-9.01 4 -8.02 4 -7 4 C-7 3.34 -7 2.68 -7 2 C-6.01 2.33 -5.02 2.66 -4 3 C-3.67 3.99 -3.34 4.98 -3 6 C-2.67 4.68 -2.34 3.36 -2 2 C-2.66 1.67 -3.32 1.34 -4 1 C-2 0 -2 0 0 0 Z " fill="#494949" transform="translate(103,172)"/>
<path d="M0 0 C1.61390439 4.84171318 0.12213538 7.51993642 -2 12 C-2.350625 13.11375 -2.70125 14.2275 -3.0625 15.375 C-4 18 -4 18 -6 19 C-8.57880677 7.55654497 -8.57880677 7.55654497 -8 2 C-4.77208445 -0.1519437 -3.71599191 -0.20086443 0 0 Z " fill="#393939" transform="translate(83,98)"/>
<path d="M0 0 C0.33 0 0.66 0 1 0 C1 12.21 1 24.42 1 37 C0.34 37 -0.32 37 -1 37 C-1.33 37.99 -1.66 38.98 -2 40 C-2.66 39.67 -3.32 39.34 -4 39 C-3.85831863 37.56208484 -3.71148957 36.1246763 -3.5625 34.6875 C-3.48128906 33.88699219 -3.40007813 33.08648437 -3.31640625 32.26171875 C-3 30 -3 30 -2 27 C-1.86171173 25.0208383 -1.77504464 23.03787574 -1.71875 21.0546875 C-1.66267578 19.31638672 -1.66267578 19.31638672 -1.60546875 17.54296875 C-1.53493179 15.08985019 -1.46462072 12.63672513 -1.39453125 10.18359375 C-1.35714844 9.02730469 -1.31976562 7.87101562 -1.28125 6.6796875 C-1.25095703 5.61476074 -1.22066406 4.54983398 -1.18945312 3.45263672 C-1 1 -1 1 0 0 Z " fill="#191919" transform="translate(23,89)"/>
<path d="M0 0 C3.41698625 1.44071606 5.31958785 3.23230565 7.6875 6.0625 C8.28949219 6.77535156 8.89148438 7.48820313 9.51171875 8.22265625 C10.24841797 9.10244141 10.24841797 9.10244141 11 10 C11.33 10.33 11.66 10.66 12 11 C12.08758003 12.99964982 12.10696576 15.0023611 12.09765625 17.00390625 C12.09443359 18.21884766 12.09121094 19.43378906 12.08789062 20.68554688 C12.07951172 21.96494141 12.07113281 23.24433594 12.0625 24.5625 C12.05798828 25.84576172 12.05347656 27.12902344 12.04882812 28.45117188 C12.03699545 31.63416022 12.02051068 34.81705762 12 38 C11.34 38 10.68 38 10 38 C10 29.09 10 20.18 10 11 C9.34 11 8.68 11 8 11 C7.67 9.68 7.34 8.36 7 7 C6.360625 6.896875 5.72125 6.79375 5.0625 6.6875 C4.381875 6.460625 3.70125 6.23375 3 6 C2.67 5.01 2.34 4.02 2 3 C1.34 3 0.68 3 0 3 C0 2.01 0 1.02 0 0 Z " fill="#858585" transform="translate(97,247)"/>
<path d="M0 0 C0.99 0.99 1.98 1.98 3 3 C1.36088894 9.68252971 1.36088894 9.68252971 -0.54223633 11.35668945 C-2.69734954 13.78610949 -2.4336065 15.77786657 -2.51171875 18.98046875 C-2.54716797 20.14384766 -2.58261719 21.30722656 -2.61914062 22.50585938 C-2.64169922 23.72080078 -2.66425781 24.93574219 -2.6875 26.1875 C-2.72166016 27.41404297 -2.75582031 28.64058594 -2.79101562 29.90429688 C-2.8735941 32.93610678 -2.94271369 35.96762379 -3 39 C-3.33 39 -3.66 39 -4 39 C-4 28.11 -4 17.22 -4 6 C-3.34 6 -2.68 6 -2 6 C-1.855625 5.195625 -1.71125 4.39125 -1.5625 3.5625 C-1 1 -1 1 0 0 Z " fill="#282828" transform="translate(97,72)"/>
<path d="M0 0 C0.66 0 1.32 0 2 0 C2.65655389 8.68761489 3.16311941 17.28217363 3 26 C2.34 25.34 1.68 24.68 1 24 C1 23.01 1 22.02 1 21 C0.34 21 -0.32 21 -1 21 C-2.4606285 18.35261084 -3 17.10551666 -3 14 C-3.66 14 -4.32 14 -5 14 C-4.67 12.68 -4.34 11.36 -4 10 C-2.29159719 11.63412443 -1.06546953 12.86906094 0 15 C0 10.05 0 5.1 0 0 Z " fill="#646464" transform="translate(105,212)"/>
<path d="M0 0 C-1 1 -1 1 -4.14282227 1.11352539 C-5.53402697 1.11336633 -6.92523761 1.10767506 -8.31640625 1.09765625 C-9.04746078 1.0962413 -9.77851532 1.09482635 -10.53172302 1.09336853 C-12.87535632 1.08775408 -15.21889539 1.07519922 -17.5625 1.0625 C-19.14778508 1.05748686 -20.73307166 1.05292363 -22.31835938 1.04882812 C-26.2122761 1.03777997 -30.10612205 1.02050572 -34 1 C-34.33 0.34 -34.66 -0.32 -35 -1 C-30.65882638 -1.19275481 -26.31736798 -1.37139593 -21.97509766 -1.53710938 C-20.49870326 -1.59542647 -19.02245456 -1.65756463 -17.54638672 -1.72363281 C-15.42181939 -1.81805803 -13.29710326 -1.89862513 -11.171875 -1.9765625 C-9.8940918 -2.02893066 -8.61630859 -2.08129883 -7.29980469 -2.13525391 C-4.17769442 -2.00728342 -2.58596031 -1.66891271 0 0 Z " fill="#888888" transform="translate(50,163)"/>
<path d="M0 0 C2.64 0.99 5.28 1.98 8 3 C8 3.66 8 4.32 8 5 C6.02 5.99 6.02 5.99 4 7 C4.33 7.99 4.66 8.98 5 10 C7.31 10 9.62 10 12 10 C12 10.33 12 10.66 12 11 C5.06517795 11.36499063 1.18784615 10.09392307 -5 7 C-5 6.34 -5 5.68 -5 5 C-4.01 4.67 -3.02 4.34 -2 4 C-0.79117904 1.99983534 -0.79117904 1.99983534 0 0 Z " fill="#6C6C6C" transform="translate(10,306)"/>
<path d="M0 0 C2.46934085 3.70401128 2.44928433 6.70587865 2 11 C1 13.5 1 13.5 0 15 C-1.65 14.67 -3.3 14.34 -5 14 C-5 12.02 -5 10.04 -5 8 C-4.34 8 -3.68 8 -3 8 C-3 6.35 -3 4.7 -3 3 C-2.34 3 -1.68 3 -1 3 C-0.67 2.01 -0.34 1.02 0 0 Z " fill="#343434" transform="translate(124,189)"/>
<path d="M0 0 C2.97 0.495 2.97 0.495 6 1 C6 1.66 6 2.32 6 3 C4.02 3 2.04 3 0 3 C0 2.01 0 1.02 0 0 Z M-6 2 C-3.03 2.495 -3.03 2.495 0 3 C1.11911712 6.35735137 1.11365586 8.88205386 1.09765625 12.41796875 C1.09443359 13.67158203 1.09121094 14.92519531 1.08789062 16.21679688 C1.07951172 17.52712891 1.07113281 18.83746094 1.0625 20.1875 C1.05748317 21.52278481 1.05292059 22.85807141 1.04882812 24.19335938 C1.03702695 27.46228473 1.02056297 30.73111991 1 34 C0.67 34 0.34 34 0 34 C0 25.42 0 16.84 0 8 C-1.32 7.67 -2.64 7.34 -4 7 C-5.25 4.4375 -5.25 4.4375 -6 2 Z " fill="#727272" transform="translate(20,80)"/>
<path d="M0 0 C1.32 0 2.64 0 4 0 C4 0.66 4 1.32 4 2 C4.598125 2.103125 5.19625 2.20625 5.8125 2.3125 C8.28243264 3.08876455 9.32251235 4.07088921 11 6 C10.67 6.66 10.34 7.32 10 8 C9.1646875 7.01 9.1646875 7.01 8.3125 6 C6.1803949 3.78023796 6.1803949 3.78023796 3.4375 3.6875 C0.86578949 3.93750247 0.86578949 3.93750247 -2 5 C-1.34 9.95 -0.68 14.9 0 20 C-0.33 19.34 -0.66 18.68 -1 18 C-1.66 18 -2.32 18 -3 18 C-3.19504458 15.89651926 -3.38078496 13.79217415 -3.5625 11.6875 C-3.66691406 10.51574219 -3.77132812 9.34398437 -3.87890625 8.13671875 C-4 5 -4 5 -3 2 C-2.01 2 -1.02 2 0 2 C0 1.34 0 0.68 0 0 Z " fill="#9E9E9E" transform="translate(78,157)"/>
<path d="M0 0 C0.66 0 1.32 0 2 0 C2 1.98 2 3.96 2 6 C2.66 6 3.32 6 4 6 C3.40836381 10.83169556 2.62343024 15.40028099 1 20 C0.01 20.66 -0.98 21.32 -2 22 C-2 20.02 -2 18.04 -2 16 C-1.34 16 -0.68 16 0 16 C-0.33 13.69 -0.66 11.38 -1 9 C-0.01 9 0.98 9 2 9 C2 8.34 2 7.68 2 7 C1.34 7 0.68 7 0 7 C0 4.69 0 2.38 0 0 Z " fill="#8D8D8D" transform="translate(116,192)"/>
<path d="M0 0 C1.1875 1.5625 1.1875 1.5625 2 4 C0.08597285 10.16742081 0.08597285 10.16742081 -2.875 12.4375 C-5.32768847 13.08674107 -7.47352147 13.14035992 -10 13 C-9.01 12.67 -8.02 12.34 -7 12 C-6.67 10.02 -6.34 8.04 -6 6 C-5.01 5.67 -4.02 5.34 -3 5 C-2.67 4.01 -2.34 3.02 -2 2 C-1.34 2 -0.68 2 0 2 C0 1.34 0 0.68 0 0 Z " fill="#1C1C1C" transform="translate(58,304)"/>
<path d="M0 0 C2.0625 0.4375 2.0625 0.4375 4 1 C4.02710123 3.5625718 4.04688771 6.12485365 4.0625 8.6875 C4.07087891 9.40873047 4.07925781 10.12996094 4.08789062 10.87304688 C4.10543632 14.71555382 3.93524221 18.26639526 3 22 C2.34 22 1.68 22 1 22 C1 16.06 1 10.12 1 4 C0.67 4.66 0.34 5.32 0 6 C-0.66 6 -1.32 6 -2 6 C-1.125 1.125 -1.125 1.125 0 0 Z " fill="#6D6D6D" transform="translate(104,63)"/>
<path d="M0 0 C1.39864092 3.17872935 0.89282517 4.30111022 -0.3125 7.6875 C-2 11 -2 11 -4 12 C-4.72159424 13.64363134 -5.39351421 15.31050386 -6 17 C-7.20220203 13.46905698 -6.79532349 10.87101018 -6.0625 7.25 C-5.86785156 6.26515625 -5.67320313 5.2803125 -5.47265625 4.265625 C-5.31667969 3.51796875 -5.16070312 2.7703125 -5 2 C-3.33333333 2 -1.66666667 2 0 2 C0 1.34 0 0.68 0 0 Z " fill="#848584" transform="translate(115,141)"/>
<path d="M0 0 C2.62386487 3.06117568 3 3.73173127 3 8 C2.34 8 1.68 8 1 8 C1.061875 8.886875 1.12375 9.77375 1.1875 10.6875 C1.22410208 16.5926351 -0.56365929 22.31448468 -2 28 C-2.66 27.67 -3.32 27.34 -4 27 C-3.69249629 24.85344499 -3.3788634 22.70776715 -3.0625 20.5625 C-2.88847656 19.36753906 -2.71445313 18.17257813 -2.53515625 16.94140625 C-2 14 -2 14 -1 13 C-0.76518307 10.81707226 -0.58636677 8.62796826 -0.4375 6.4375 C-0.35371094 5.23996094 -0.26992187 4.04242188 -0.18359375 2.80859375 C-0.12300781 1.88175781 -0.06242187 0.95492187 0 0 Z " fill="#676767" transform="translate(127,109)"/>
<path d="M0 0 C1.32 0 2.64 0 4 0 C5.20568053 4.67201205 5.09382426 9.21496292 5 14 C4.01 14 3.02 14 2 14 C2 11.36 2 8.72 2 6 C1.34 6 0.68 6 0 6 C0 4.02 0 2.04 0 0 Z " fill="#1A1A1A" transform="translate(55,146)"/>
<path d="M0 0 C0.66 0 1.32 0 2 0 C1.48969157 5.99612402 -0.44317679 10.59327898 -3 16 C-3.67834587 17.66194738 -4.35199575 19.32598903 -5 21 C-5.66 21 -6.32 21 -7 21 C-6.21824485 16.15311808 -4.60155722 11.6233633 -3 7 C-2.34 7 -1.68 7 -1 7 C-0.67 4.69 -0.34 2.38 0 0 Z " fill="#838383" transform="translate(122,204)"/>
<path d="M0 0 C0.66 0.33 1.32 0.66 2 1 C2 2.32 2 3.64 2 5 C2.66 5 3.32 5 4 5 C4.33 7.31 4.66 9.62 5 12 C4.01 12.495 4.01 12.495 3 13 C0.98841004 11.32367504 0.08629296 10.35133561 -0.546875 7.7734375 C-0.61390625 6.98195312 -0.6809375 6.19046875 -0.75 5.375 C-0.82734375 4.57835937 -0.9046875 3.78171875 -0.984375 2.9609375 C-0.98953125 2.31382812 -0.9946875 1.66671875 -1 1 C-0.67 0.67 -0.34 0.34 0 0 Z " fill="#1C1C1C" transform="translate(78,167)"/>
<path d="M0 0 C0.66 0.33 1.32 0.66 2 1 C1.58846263 5.97093824 1.20399168 10.44508386 -1 15 C-2.78409802 11.93753253 -3.22880021 9.77920727 -3.125 6.25 C-3.10695313 5.45078125 -3.08890625 4.6515625 -3.0703125 3.828125 C-3.04710938 3.22484375 -3.02390625 2.6215625 -3 2 C-2.34 2 -1.68 2 -1 2 C-0.67 1.34 -0.34 0.68 0 0 Z " fill="#595B5A" transform="translate(106,134)"/>
<path d="M0 0 C1.95825873 -0.02694851 3.91662226 -0.04637218 5.875 -0.0625 C6.96554688 -0.07410156 8.05609375 -0.08570313 9.1796875 -0.09765625 C12 0 12 0 14 1 C14 3.97 14 6.94 14 10 C13.34 10 12.68 10 12 10 C11.67 7.69 11.34 5.38 11 3 C7.37 2.67 3.74 2.34 0 2 C0 1.34 0 0.68 0 0 Z " fill="#747473" transform="translate(33,52)"/>
<path d="M0 0 C0.99 0 1.98 0 3 0 C3.66 5.61 4.32 11.22 5 17 C1.83869541 12.78492722 1.6632303 11.93928888 2 7 C1.34 7 0.68 7 0 7 C-0.38133299 5.0085944 -0.71325582 3.00720923 -1 1 C-0.67 0.67 -0.34 0.34 0 0 Z " fill="#646464" transform="translate(92,114)"/>
<path d="M0 0 C0.33 0 0.66 0 1 0 C1.66 3.63 2.32 7.26 3 11 C2.34 11 1.68 11 1 11 C1.33 11.99 1.66 12.98 2 14 C3.32 14 4.64 14 6 14 C6 14.66 6 15.32 6 16 C4.35 16.33 2.7 16.66 1 17 C-1.55694972 13.16457543 -1.04045639 11.34097467 -0.625 6.8125 C-0.51414062 5.54019531 -0.40328125 4.26789063 -0.2890625 2.95703125 C-0.19367188 1.98121094 -0.09828125 1.00539063 0 0 Z " fill="#858585" transform="translate(105,303)"/>
<path d="M0 0 C0.33 0.66 0.66 1.32 1 2 C2.65 1.67 4.3 1.34 6 1 C9 5.75 9 5.75 9 8 C5.625 7.75 5.625 7.75 2 7 C0.05758039 4.4664092 0 3.21812786 0 0 Z " fill="#3D3D3D" transform="translate(78,177)"/>
<path d="M0 0 C3.53958788 2.24173899 4.57147413 4.12257263 6 8 C6.66 8.33 7.32 8.66 8 9 C8 11.31 8 13.62 8 16 C7.34 15.34 6.68 14.68 6 14 C6 13.01 6 12.02 6 11 C5.34 11 4.68 11 4 11 C2.5393715 8.35261084 2 7.10551666 2 4 C1.34 4 0.68 4 0 4 C0 2.68 0 1.36 0 0 Z " fill="#8D8D8D" transform="translate(100,222)"/>
<path d="M0 0 C4 0 4 0 7 1 C6.67 2.98 6.34 4.96 6 7 C4.35 6.67 2.7 6.34 1 6 C0.67 4.02 0.34 2.04 0 0 Z " fill="#3F3F3F" transform="translate(3,305)"/>
<path d="M0 0 C0.33 0 0.66 0 1 0 C1.36134972 5.78159553 0.45790037 9.72006588 -2 15 C-2.99 15.33 -3.98 15.66 -5 16 C-3.41078475 10.63904723 -1.81027062 5.29156027 0 0 Z " fill="#999999" transform="translate(19,117)"/>
<path d="M0 0 C1.98 0.495 1.98 0.495 4 1 C4 2.65 4 4.3 4 6 C3.67 5.34 3.34 4.68 3 4 C2.34 4 1.68 4 1 4 C1.33 6.97 1.66 9.94 2 13 C-1 10 -1 10 -1.25 6.5 C-1 3 -1 3 0 0 Z " fill="#888888" transform="translate(81,107)"/>
<path d="M0 0 C0.66 0 1.32 0 2 0 C2 4.29 2 8.58 2 13 C0.35 13 -1.3 13 -3 13 C-3 12.34 -3 11.68 -3 11 C-2.01 11 -1.02 11 0 11 C0 7.37 0 3.74 0 0 Z " fill="#8B8B8B" transform="translate(55,152)"/>
<path d="M0 0 C0.33 0 0.66 0 1 0 C1 4.62 1 9.24 1 14 C0.34 14 -0.32 14 -1 14 C-1 14.99 -1 15.98 -1 17 C-1.66 17 -2.32 17 -3 17 C-2.67 14.36 -2.34 11.72 -2 9 C-1.34 9 -0.68 9 0 9 C-0.185625 7.700625 -0.37125 6.40125 -0.5625 5.0625 C-0.87890625 2.84765625 -0.87890625 2.84765625 -1 1 C-0.67 0.67 -0.34 0.34 0 0 Z " fill="#7E7E7E" transform="translate(122,114)"/>
<path d="M0 0 C0.66 0 1.32 0 2 0 C1.6549982 5.34752797 1.6549982 5.34752797 1 8 C-1.78972582 10.30873861 -3.26799831 10 -7 10 C-7 9.34 -7 8.68 -7 8 C-6.21625 7.79375 -5.4325 7.5875 -4.625 7.375 C-1.69083714 6.19323388 -1.69083714 6.19323388 -0.6875 2.875 C-0.460625 1.92625 -0.23375 0.9775 0 0 Z " fill="#929292" transform="translate(55,301)"/>
<path d="M0 0 C0.66 0 1.32 0 2 0 C2 3.3 2 6.6 2 10 C1.34 10 0.68 10 0 10 C-0.66 9.34 -1.32 8.68 -2 8 C-1.42307692 1.42307692 -1.42307692 1.42307692 0 0 Z " fill="#7D7D7D" transform="translate(123,171)"/>
<path d="M0 0 C0.66 0 1.32 0 2 0 C1.51421457 3.12290635 1.0013988 5.99580359 0 9 C-0.66 9 -1.32 9 -2 9 C-2.66 10.32 -3.32 11.64 -4 13 C-4.6875 11.1875 -4.6875 11.1875 -5 9 C-4.02351983 7.97702078 -3.01868662 6.98095748 -2 6 C-0.79950593 2.89992799 -0.79950593 2.89992799 0 0 Z " fill="#8C8C8C" transform="translate(22,126)"/>
<path d="M0 0 C2.58155616 3.87233424 3.12134154 5.53536019 3.0625 10.125 C3.05347656 11.03507812 3.04445313 11.94515625 3.03515625 12.8828125 C3.02355469 13.58148438 3.01195313 14.28015625 3 15 C2.34 15 1.68 15 1 15 C0.67 10.05 0.34 5.1 0 0 Z " fill="#909090" transform="translate(74,104)"/>
<path d="M0 0 C0.66 0 1.32 0 2 0 C2.33 4.29 2.66 8.58 3 13 C2.34 13 1.68 13 1 13 C-0.32229189 10.35541621 -0.09677194 8.32238699 -0.0625 5.375 C-0.05347656 4.37210937 -0.04445313 3.36921875 -0.03515625 2.3359375 C-0.02355469 1.56507813 -0.01195312 0.79421875 0 0 Z " fill="#696969" transform="translate(7,293)"/>
<path d="M0 0 C2.475 0.495 2.475 0.495 5 1 C5 1.99 5 2.98 5 4 C4.34 4 3.68 4 3 4 C3.33 5.98 3.66 7.96 4 10 C3.67 9.01 3.34 8.02 3 7 C2.34 7 1.68 7 1 7 C0.67 4.69 0.34 2.38 0 0 Z " fill="#7B7A7B" transform="translate(79,165)"/>
<path d="M0 0 C1.43737869 2.87475738 0.52819784 4.50650357 -0.3125 7.5625 C-0.57675781 8.55378906 -0.84101563 9.54507813 -1.11328125 10.56640625 C-2 13 -2 13 -4 14 C-4.19188324 9.20291909 -3.9022844 5.43866361 -2 1 C-1.34 0.67 -0.68 0.34 0 0 Z " fill="#959595" transform="translate(11,146)"/>
<path d="M0 0 C1.32 0.33 2.64 0.66 4 1 C3.67 4.3 3.34 7.6 3 11 C2.67 11 2.34 11 2 11 C1.67 8.69 1.34 6.38 1 4 C0.67 4.66 0.34 5.32 0 6 C-0.66 6 -1.32 6 -2 6 C-1.125 1.125 -1.125 1.125 0 0 Z " fill="#979797" transform="translate(104,63)"/>
<path d="M0 0 C1.32 0 2.64 0 4 0 C4 0.66 4 1.32 4 2 C4.598125 2.103125 5.19625 2.20625 5.8125 2.3125 C8.28243264 3.08876455 9.32251235 4.07088921 11 6 C10.67 6.66 10.34 7.32 10 8 C9.1646875 7.01 9.1646875 7.01 8.3125 6 C6.17274717 3.77202489 6.17274717 3.77202489 3.375 3.6875 C0.98760253 3.87006966 0.98760253 3.87006966 -1 5 C-0.67 3.35 -0.34 1.7 0 0 Z " fill="#909090" transform="translate(78,157)"/>
<path d="M0 0 C0 3.63 0 7.26 0 11 C-0.99 11.495 -0.99 11.495 -2 12 C-3.2380014 8.42355152 -2.74926071 5.66305234 -2 2 C-2.66 1.67 -3.32 1.34 -4 1 C-2 0 -2 0 0 0 Z " fill="#BFBFBF" transform="translate(103,172)"/>
<path d="M0 0 C0.66 0 1.32 0 2 0 C1.67 4.29 1.34 8.58 1 13 C0.34 12.67 -0.32 12.34 -1 12 C-0.67 8.04 -0.34 4.08 0 0 Z " fill="#797879" transform="translate(104,112)"/>
<path d="M0 0 C0.66 0 1.32 0 2 0 C1.39301257 4.12751449 -0.03810791 7.3321148 -2 11 C-2.66 11 -3.32 11 -4 11 C-3.39301257 6.87248551 -1.96189209 3.6678852 0 0 Z " fill="#828282" transform="translate(113,157)"/>
<path d="M0 0 C0.66 0 1.32 0 2 0 C2.93065133 2.60582371 3.14917407 3.64198224 2.0625 6.25 C1.5365625 7.11625 1.5365625 7.11625 1 8 C0.01 8 -0.98 8 -2 8 C-2 6.35 -2 4.7 -2 3 C-1.34 3 -0.68 3 0 3 C0 2.01 0 1.02 0 0 Z " fill="#1A1C1B" transform="translate(109,138)"/>
<path d="M0 0 C2 3 2 3 2 7 C2.66 7.33 3.32 7.66 4 8 C3.01 8.33 2.02 8.66 1 9 C0.34 8.67 -0.32 8.34 -1 8 C-1.75 5.0625 -1.75 5.0625 -2 2 C-1.34 1.34 -0.68 0.68 0 0 Z " fill="#1A1A1A" transform="translate(80,119)"/>
<path d="M0 0 C3 4 3 4 3 8 C2.34 8 1.68 8 1 8 C1 10.31 1 12.62 1 15 C0.67 15 0.34 15 0 15 C0 10.05 0 5.1 0 0 Z " fill="#B2B2B2" transform="translate(127,109)"/>
<path d="M0 0 C0.66 0 1.32 0 2 0 C1.67 3.63 1.34 7.26 1 11 C0.34 11 -0.32 11 -1 11 C-1.125 3.375 -1.125 3.375 0 0 Z " fill="#848484" transform="translate(100,103)"/>
<path d="M0 0 C0.66 0 1.32 0 2 0 C1.34 3.96 0.68 7.92 0 12 C-0.66 11.67 -1.32 11.34 -2 11 C-1 3.57142857 -1 3.57142857 0 0 Z " fill="#6F7070" transform="translate(113,129)"/>
<path d="M0 0 C0.66 0 1.32 0 2 0 C0.515 5.445 0.515 5.445 -1 11 C-1.66 11 -2.32 11 -3 11 C-2.44894091 7.0507432 -1.61064629 3.65079826 0 0 Z " fill="#5F5F5F" transform="translate(113,116)"/>
<path d="M0 0 C0.66 0 1.32 0 2 0 C3.06775224 1.96466413 4.06553465 3.96855359 5 6 C4.67 6.66 4.34 7.32 4 8 C3.21625 7.360625 2.4325 6.72125 1.625 6.0625 C-0.79539281 4.01857687 -0.79539281 4.01857687 -3 3 C-2.67 2.34 -2.34 1.68 -2 1 C-1.34 1.33 -0.68 1.66 0 2 C0 1.34 0 0.68 0 0 Z " fill="#7A7A7A" transform="translate(98,190)"/>
<path d="M0 0 C0.33 0.66 0.66 1.32 1 2 C-0.76227632 5.61730402 -2.64326421 7.80075931 -6 10 C-4.79157144 5.56909529 -3.48331435 3.01887244 0 0 Z " fill="#818181" transform="translate(13,133)"/>
<path d="M0 0 C0.66 0 1.32 0 2 0 C1.43454163 3.95820859 0.19097652 6.6659053 -2 10 C-3.39195915 5.82412255 -1.82323219 3.86525224 0 0 Z " fill="#939393" transform="translate(118,119)"/>
<path d="M0 0 C0.66 0 1.32 0 2 0 C5.22265625 5.2734375 5.22265625 5.2734375 6 7 C5.67 7.66 5.34 8.32 5 9 C1.7457985 6.16569547 0.4793247 4.31392226 0 0 Z " fill="#939393" transform="translate(83,175)"/>
<path d="M0 0 C0.66 0 1.32 0 2 0 C1.67 3.3 1.34 6.6 1 10 C0.34 10 -0.32 10 -1 10 C-0.67 6.7 -0.34 3.4 0 0 Z " fill="#9A9A9A" transform="translate(94,68)"/>
<path d="M0 0 C0.66 0.99 1.32 1.98 2 3 C1.125 6.1875 1.125 6.1875 0 9 C-0.66 9 -1.32 9 -2 9 C-2.33 9.66 -2.66 10.32 -3 11 C-2.69078116 9.54096742 -2.37751201 8.08279278 -2.0625 6.625 C-1.88847656 5.81289062 -1.71445313 5.00078125 -1.53515625 4.1640625 C-1 2 -1 2 0 0 Z " fill="#717171" transform="translate(118,167)"/>
<path d="M0 0 C2.4294516 3.6441774 2.16179575 5.71241272 2 10 C1.34 9.67 0.68 9.34 0 9 C-0.44921875 7.1875 -0.44921875 7.1875 -0.6875 5 C-0.77386719 4.278125 -0.86023437 3.55625 -0.94921875 2.8125 C-0.96597656 2.214375 -0.98273437 1.61625 -1 1 C-0.67 0.67 -0.34 0.34 0 0 Z " fill="#818181" transform="translate(60,146)"/>
<path d="M0 0 C0.99 0.33 1.98 0.66 3 1 C3.73046875 2.84765625 3.73046875 2.84765625 4.1875 5.0625 C4.34605469 5.79597656 4.50460938 6.52945313 4.66796875 7.28515625 C4.83232422 8.13400391 4.83232422 8.13400391 5 9 C4.34 9 3.68 9 3 9 C2.01 6.03 1.02 3.06 0 0 Z " fill="#7A7A7A" transform="translate(96,174)"/>
<path d="M0 0 C0.99 0 1.98 0 3 0 C2.30058404 3.14737182 1.23921302 6.02588876 0 9 C-1.10844919 5.67465243 -0.84454356 3.37817425 0 0 Z " fill="#A9AAA9" transform="translate(109,149)"/>
<path d="M0 0 C0.66 0 1.32 0 2 0 C1.34 2.97 0.68 5.94 0 9 C-0.66 9 -1.32 9 -2 9 C-1.51421457 5.87709365 -1.0013988 3.00419641 0 0 Z " fill="#7A7A7A" transform="translate(5,143)"/>
<path d="M0 0 C0.66 0 1.32 0 2 0 C2.33 2.31 2.66 4.62 3 7 C2.01 7 1.02 7 0 7 C0 4.69 0 2.38 0 0 Z " fill="#9A9A9A" transform="translate(103,136)"/>
<path d="M0 0 C0 0.33 0 0.66 0 1 C-0.9075 1.0825 -1.815 1.165 -2.75 1.25 C-6.40077839 2.09248732 -7.63384583 3.17881618 -10 6 C-10.33 5.34 -10.66 4.68 -11 4 C-7.65667474 -0.27945633 -5.29105716 -0.4070044 0 0 Z " fill="#7C7C7C" transform="translate(127,108)"/>
<path d="M0 0 C0.99 0.495 0.99 0.495 2 1 C2.625 4.0625 2.625 4.0625 3 7 C2.01 7.66 1.02 8.32 0 9 C0 6.03 0 3.06 0 0 Z " fill="#171717" transform="translate(77,108)"/>
<path d="M0 0 C-3.51187196 2.40814077 -5.72656908 3.36629408 -10 3 C-9.01 2.67 -8.02 2.34 -7 2 C-7 1.34 -7 0.68 -7 0 C-3.98968256 -0.93423645 -3.13349732 -1.04449911 0 0 Z " fill="#8D8D8D" transform="translate(58,314)"/>
<path d="M0 0 C2.31 0.66 4.62 1.32 7 2 C7 2.66 7 3.32 7 4 C2.25 4.125 2.25 4.125 0 3 C0 2.01 0 1.02 0 0 Z " fill="#151714" transform="translate(39,70)"/>
<path d="M0 0 C1.98 0.495 1.98 0.495 4 1 C4 1.99 4 2.98 4 4 C2.35 4.66 0.7 5.32 -1 6 C-1 5.34 -1 4.68 -1 4 C-0.34 4 0.32 4 1 4 C0.67 2.68 0.34 1.36 0 0 Z " fill="#4E4E4E" transform="translate(108,58)"/>
<path d="M0 0 C0.66 0.66 1.32 1.32 2 2 C1.34 2 0.68 2 0 2 C0 1.34 0 0.68 0 0 Z " fill="#FFFFFF" transform="translate(66,360)"/>
<path d="M0 0 C0.66 0.66 1.32 1.32 2 2 C1.34 2 0.68 2 0 2 C0 1.34 0 0.68 0 0 Z " fill="#FFFFFF" transform="translate(97,328)"/>
<path d="M0 0 C0.66 0.66 1.32 1.32 2 2 C1.34 2 0.68 2 0 2 C0 1.34 0 0.68 0 0 Z " fill="#FFFFFF" transform="translate(72,309)"/>
<path d="M0 0 C0.33 0.66 0.66 1.32 1 2 C0.34 1.67 -0.32 1.34 -1 1 C-0.67 0.67 -0.34 0.34 0 0 Z " fill="#FFFFFF" transform="translate(31,290)"/>
<path d="M0 0 C0.66 0 1.32 0 2 0 C1.67 0.66 1.34 1.32 1 2 C0.67 1.34 0.34 0.68 0 0 Z " fill="#FFFFFF" transform="translate(100,218)"/>
<path d="M0 0 C0.66 0.66 1.32 1.32 2 2 C1.34 2 0.68 2 0 2 C0 1.34 0 0.68 0 0 Z " fill="#FFFFFF" transform="translate(78,150)"/>
<path d="" fill="#FFFFFF" transform="translate(0,0)"/>
<path d="" fill="#FFFFFF" transform="translate(0,0)"/>
<path d="M0 0 C2 1 2 1 2 1 Z " fill="#FFFFFF" transform="translate(67,355)"/>
<path d="" fill="#FFFFFF" transform="translate(0,0)"/>
<path d="M0 0 C2 1 2 1 2 1 Z " fill="#FFFFFF" transform="translate(67,332)"/>
<path d="" fill="#FFFFFF" transform="translate(0,0)"/>
<path d="M0 0 C2 1 2 1 2 1 Z " fill="#FFFFFF" transform="translate(78,318)"/>
<path d="" fill="#FFFFFF" transform="translate(0,0)"/>
<path d="" fill="#FFFFFF" transform="translate(0,0)"/>
<path d="" fill="#FFFFFF" transform="translate(0,0)"/>
<path d="" fill="#FFFFFF" transform="translate(0,0)"/>
<path d="M0 0 C2 1 2 1 2 1 Z " fill="#FFFFFF" transform="translate(66,279)"/>
<path d="" fill="#FFFFFF" transform="translate(0,0)"/>
<path d="" fill="#FFFFFF" transform="translate(0,0)"/>
<path d="M0 0 C2 1 2 1 2 1 Z " fill="#FFFFFF" transform="translate(29,253)"/>
<path d="M0 0 C2 1 2 1 2 1 Z " fill="#FFFFFF" transform="translate(118,249)"/>
<path d="M0 0 C2 1 2 1 2 1 Z " fill="#FFFFFF" transform="translate(27,241)"/>
<path d="" fill="#FFFFFF" transform="translate(0,0)"/>
<path d="" fill="#FFFFFF" transform="translate(0,0)"/>
<path d="" fill="#FFFFFF" transform="translate(0,0)"/>
<path d="M0 0 C2 1 2 1 2 1 Z " fill="#FFFFFF" transform="translate(23,230)"/>
<path d="" fill="#FFFFFF" transform="translate(0,0)"/>
<path d="M0 0 C2 1 2 1 2 1 Z " fill="#FFFFFF" transform="translate(47,203)"/>
<path d="" fill="#FFFFFF" transform="translate(0,0)"/>
<path d="M0 0 C2 1 2 1 2 1 Z " fill="#FFFFFF" transform="translate(67,183)"/>
<path d="M0 0 C2 1 2 1 2 1 Z " fill="#FFFFFF" transform="translate(22,171)"/>
<path d="" fill="#FFFFFF" transform="translate(0,0)"/>
<path d="M0 0 C2 1 2 1 2 1 Z " fill="#FFFFFF" transform="translate(29,135)"/>
<path d="M0 0 C2 1 2 1 2 1 Z " fill="#FFFFFF" transform="translate(61,121)"/>
<path d="" fill="#FFFFFF" transform="translate(0,0)"/>
<path d="" fill="#FFFFFF" transform="translate(0,0)"/>
<path d="" fill="#FFFFFF" transform="translate(0,0)"/>
<path d="" fill="#FFFFFF" transform="translate(0,0)"/>
<path d="M0 0 C2 1 2 1 2 1 Z " fill="#FFFFFF" transform="translate(4,58)"/>
<path d="M0 0 C2 1 2 1 2 1 Z " fill="#FF00FF" transform="translate(93,56)"/>
<path d="" fill="#FFFFFF" transform="translate(0,0)"/>
<path d="M0 0 C2 1 2 1 2 1 Z " fill="#FFFFFF" transform="translate(94,38)"/>
<path d="M0 0 C2 1 2 1 2 1 Z " fill="#FFFFFF" transform="translate(24,38)"/>
<path d="M0 0 C2 1 2 1 2 1 Z " fill="#FFFFFF" transform="translate(36,32)"/>
<path d="M0 0 C2 1 2 1 2 1 Z " fill="#FFFFFF" transform="translate(5,13)"/>
<path d="" fill="#FFFFFF" transform="translate(0,0)"/>
<path d="" fill="#FFFFFF" transform="translate(0,0)"/>
<path d="" fill="#FFFFFF" transform="translate(0,0)"/>
<path d="" fill="#FFFFFF" transform="translate(0,0)"/>
<path d="" fill="#FFFFFF" transform="translate(0,0)"/>
<path d="" fill="#FFFFFF" transform="translate(0,0)"/>
</svg>
